<?xml version="1.0" encoding="UTF-8"?>
<svg id="Calque_1" data-name="Calque 1" xmlns="http://www.w3.org/2000/svg" viewBox="0 0 800 781.91">
  <defs>
    <style>
      .cls-1 {
        opacity: .27;
      }

      .cls-1, .cls-2 {
        isolation: isolate;
      }

      .cls-1, .cls-2, .cls-3 {
        fill: #1d1d1b;
      }

      .cls-2 {
        opacity: .3;
      }

      .cls-4 {
        fill: #8e1d81;
      }

      .cls-5 {
        fill: #674527;
      }

      .cls-6 {
        fill: #2eac6b;
      }

      .cls-7 {
        fill: #7c2182;
      }

      .cls-8 {
        fill: #010101;
      }
    </style>
  </defs>
  <g>
    <circle class="cls-6" cx="262.56" cy="213.31" r="51.54"/>
    <circle class="cls-6" cx="324.85" cy="52.44" r="36.6"/>
    <circle class="cls-6" cx="429.83" cy="204.44" r="36.6" transform="translate(147.8 587.85) rotate(-79.1)"/>
  </g>
  <path class="cls-5" d="m556.41,336l150.31-256.92c10.66-19.45,3.53-43.86-15.92-54.52-19.45-10.66-43.86-3.53-54.52,15.92l-171.45,295.52h91.59Z"/>
  <g>
    <path class="cls-4" d="m158.74,631.14l-5.92,95.42c-2,32.3,35.4,51.51,60.49,31.07l67.39-54.91-121.96-71.59Z"/>
    <path class="cls-4" d="m647.18,726.56l-5.92-95.42-121.96,71.59,67.39,54.91c25.09,20.44,62.5,1.23,60.49-31.07Z"/>
  </g>
  <path class="cls-7" d="m57.1,359.25v37.6h0c0,177.23,143.68,320.91,320.91,320.91h43.98c177.23,0,320.91-143.68,320.91-320.91h0v-37.6H57.1Z"/>
  <path class="cls-4" d="m742.9,314.36H57.1c-22.78,0-41.25,18.47-41.25,41.25h0c0,22.78,18.47,41.25,41.25,41.25h685.8c22.78,0,41.25-18.47,41.25-41.25h0c0-22.78-18.47-41.25-41.25-41.25Z"/>
  <g>
    <path class="cls-1" d="m739.45,443.92c2.26-15.36,3.45-31.07,3.45-47.07H57.1c0,15.99,1.19,31.7,3.45,47.07h678.91Z"/>
    <path class="cls-2" d="m742.9,314.36h-342.9v403.41h21.99c33.93,0,66.62-5.28,97.32-15.04h0l67.39,54.91c25.09,20.44,62.49,1.23,60.49-31.07l-5.92-95.42c62.54-58.56,101.64-141.85,101.64-234.29h0c22.78,0,41.25-18.47,41.25-41.25h0c0-22.78-18.47-41.24-41.25-41.24Z"/>
    <path class="cls-3" d="m262.56,280.71c37.16,0,67.39-30.23,67.39-67.39s-30.23-67.39-67.39-67.39-67.39,30.23-67.39,67.39c0,37.15,30.23,67.39,67.39,67.39Zm0-103.07c19.68,0,35.68,16.01,35.68,35.68s-16.01,35.68-35.68,35.68-35.68-16.01-35.68-35.68c0-19.68,16.01-35.68,35.68-35.68Z"/>
    <path class="cls-3" d="m324.86,104.9c28.92,0,52.45-23.53,52.45-52.45S353.78,0,324.86,0s-52.45,23.53-52.45,52.45,23.53,52.45,52.45,52.45Zm0-73.19c11.44,0,20.74,9.3,20.74,20.74s-9.31,20.74-20.74,20.74-20.74-9.31-20.74-20.74,9.31-20.74,20.74-20.74Z"/>
    <path class="cls-3" d="m429.84,256.89c28.92,0,52.45-23.53,52.45-52.45s-23.53-52.45-52.45-52.45-52.45,23.53-52.45,52.45,23.53,52.45,52.45,52.45Zm0-73.19c11.44,0,20.74,9.31,20.74,20.74s-9.31,20.74-20.74,20.74-20.74-9.3-20.74-20.74c0-11.44,9.31-20.74,20.74-20.74Z"/>
    <path class="cls-3" d="m742.9,298.5h-146.18l123.68-211.42c.07-.13.15-.26.22-.39,7.19-13.12,8.84-28.25,4.65-42.62-4.19-14.36-13.73-26.23-26.85-33.42-8.23-4.51-17.53-6.9-26.88-6.9-20.41,0-39.19,11.07-49.05,28.92l-154.23,265.82H57.1c-31.48,0-57.1,25.62-57.1,57.1,0,26.09,17.6,48.14,41.55,54.93,3.56,88.65,41.54,168.57,100.92,226.75l-5.48,88.29c-.92,14.79,4.07,28.79,14.05,39.4,10.11,10.76,24.33,16.93,39.01,16.93h0c12.13,0,23.63-4.15,33.26-11.99l60.89-49.62c29.79,8.65,61.26,13.31,93.8,13.31h43.98c32.54,0,64.01-4.66,93.8-13.31l60.89,49.62c9.63,7.84,21.13,11.99,33.26,11.99h0c14.68,0,28.9-6.17,39.01-16.92,9.98-10.62,14.97-24.62,14.06-39.41l-5.48-88.29c59.38-58.18,97.36-138.11,100.92-226.75,23.95-6.79,41.55-28.84,41.55-54.93,0-31.48-25.62-57.1-57.1-57.1Zm-92.91-250.06c.07-.11.13-.22.19-.34,4.27-7.79,12.45-12.63,21.35-12.63,4.1,0,8.02,1.01,11.64,3,5.69,3.12,9.83,8.27,11.65,14.5,1.8,6.17,1.12,12.67-1.92,18.32l-132.92,227.21h-55.07l145.08-250.06ZM203.29,745.34c-3.96,3.23-8.41,4.87-13.23,4.87h0c-5.88,0-11.83-2.59-15.91-6.94-2.77-2.95-5.99-8.08-5.51-15.73l3.96-63.86c16.25,12.5,33.66,23.48,51.86,32.85.2.11.41.21.61.32,2.34,1.2,4.69,2.37,7.06,3.52,0,0,0,0,0,0,5.59,2.7,11.24,5.28,16.96,7.66l-45.81,37.33Zm422.55-2.07c-4.08,4.34-10.03,6.93-15.9,6.93-4.82,0-9.27-1.64-13.24-4.87l-45.81-37.33c8.16-3.39,16.17-7.15,24.05-11.19.18-.1.37-.19.55-.29,18.22-9.37,35.64-20.36,51.9-32.87l3.96,63.86c.47,7.65-2.74,12.78-5.52,15.74Zm-203.86-41.37h-43.98c-162.89,0-296.37-128.34-304.65-289.21h653.28c-8.28,160.87-141.76,289.21-304.65,289.21Zm320.91-320.91H57.1c-14,0-25.4-11.39-25.4-25.4s11.39-25.4,25.4-25.4h685.8c14,0,25.4,11.39,25.4,25.4s-11.39,25.4-25.39,25.4Z"/>
  </g>
  <g id="_7935ec95c421cee6d86eb22ecd12b5bb" data-name="7935ec95c421cee6d86eb22ecd12b5bb">
    <path class="cls-8" d="m525.05,644.85c0,26.14-21.19,47.32-47.32,47.32s-47.33-21.18-47.33-47.32c0-.86.08-1.69.12-2.54l-93.68-47.76c-7.86,5.82-17.56,9.31-28.09,9.31-26.14,0-47.33-21.19-47.33-47.32s21.19-47.32,47.33-47.32c11.7,0,22.4,4.27,30.66,11.31l91.2-46.5c-.13-1.42-.22-2.83-.22-4.27,0-26.13,21.19-47.32,47.33-47.32s47.32,21.19,47.32,47.32-21.19,47.32-47.32,47.32c-11.66,0-22.3-4.23-30.54-11.2l-91.32,46.57c.12,1.35.2,2.71.2,4.1,0,2.46-.25,4.85-.61,7.2l90.47,46.12c8.4-7.64,19.53-12.34,31.79-12.34,26.13,0,47.32,21.19,47.32,47.32Z"/>
  </g>
</svg>