<?xml version="1.0" encoding="utf-8"?>
<!-- Generator: Adobe Illustrator 27.4.0, SVG Export Plug-In . SVG Version: 6.00 Build 0)  -->
<svg version="1.1" id="Calque_1" xmlns="http://www.w3.org/2000/svg" xmlns:xlink="http://www.w3.org/1999/xlink" x="0px" y="0px"
	 viewBox="0 0 800 800" style="enable-background:new 0 0 800 800;" xml:space="preserve">
<style type="text/css">
	.st0{fill:none;stroke:#1D1D1B;stroke-width:66.6667;stroke-miterlimit:133.3333;}
	.st1{fill:#1D1D1B;stroke:#1D1D1B;stroke-miterlimit:133.3333;}
</style>
<path class="st0" d="M100,366.7c0-125.7,0-188.6,39.1-227.6C178.1,100,241,100,366.7,100h66.7c125.7,0,188.6,0,227.6,39.1
	C700,178.1,700,241,700,366.7v66.7c0,125.7,0,188.6-39.1,227.6C621.9,700,559,700,433.3,700h-66.7c-125.7,0-188.6,0-227.6-39.1
	C100,621.9,100,559,100,433.3V366.7z"/>
<circle class="st1" cx="550" cy="250" r="50"/>
<circle class="st0" cx="400" cy="400" r="100"/>
</svg>
