<?xml version="1.0" encoding="UTF-8"?>
<svg id="Calque_1" data-name="Calque 1" xmlns="http://www.w3.org/2000/svg" viewBox="0 0 416.32 197.55">
  <defs>
    <style>
      .cls-1 {
        fill: #fff;
      }
    </style>
  </defs>
  <path class="cls-1" d="m122.93,43.21l1.62-43.21c-5.68.53-22.38,2.21-27.79,2.03-19.3.02-78.41.23-96.76-.81v8.72c2.6.62,15.2,3.42,17.45,4.26l1.83,2.23,1.01,2.84c.38,28.16,1.77,87.05-.2,114.61l-1.01,2.43-2.43,2.03-4.26,1.83-6.49,1.22-5.88,1.62v8.32c40.71-.84,86.98-1.19,127.73,0l5.59-44.83h-7.84l-9.74,21.37-3.34,4.78-4.24,3.7-3.61,1.8-4.33,1.17c-2.85.7-38.26.47-42.19.54,0,0-5.05-.72-5.05-.72,0,0-3.52-1.26-3.52-1.26l-2.88-2.79-1.8-4.69c-.14-5.52-.08-43.68-.09-50.13,6.13.07,21.96.28,27.86.63,0,0,5.41.72,5.41.72l3.88,1.8,1.8,2.07,1.8,3.43,2.98,12.35,9.29.09-.81-25.69c.31-5.3,1.23-22.47,1.53-28.04l-9.29-.27c-1.08,4.1-3.17,12.4-4.15,16.5,0,0-1.08,2.43-1.08,2.43l-1.53,1.44-1.26.81-2.98.9c-6.6,1.47-26.55,1.25-33.54,1.62l.09-57.34.36-.99.81-.45c2.72.27,52.85-.68,54.9.63,0,0,2.88,1.98,2.88,1.98l2.7,3.07,2.16,3.79c1.75,5.23,4.9,16.01,6.31,21.37l8.09.09Z"/>
  <path class="cls-1" d="m136.11,56.6c.27.07,8.52-1.76,8.52-1.76l6.56-3.25,5.54-5.14,4.6-6.9,3.65-9.13,2.03-9.4h9.2v31.78l30.95-1.49-1.13,14.4-30.63-2.1.34,58.42.47,5.61,1.08,5,2.03,3.65,3.18,3.25,3.18,1.28,4.06.54,4.73-.47,3.99-1.28,3.38-1.83,2.64-2.1,2.16-2.77,4.46,5.27-1.35,2.91-2.23,2.91-2.84,2.98-3.99,2.64-4.87,2.23-4.8,1.28-4.4.74-5.48.47-6.42-.54-5.82-1.83-5.07-2.84-3.92-3.65-2.91-4.26-1.9-5.82-.73-4.26-.14-66.94h-18.12v-7.64Z"/>
  <path class="cls-1" d="m224.49,118.6c.56,7.94,1.44,21.34,0,28.94,0,0,6.22,2.16,6.22,2.16,20.95,6.02,52.17,7.49,62.61-15.96,0,0,2.03-9.47,2.03-9.47,0,0-1.15-9.33-1.15-9.33s-2.84-6.36-2.84-6.36c-4.32-6.29-11.42-10.65-17.99-14.13-8.82-4.6-21.32-8.13-27.86-16.03,0,0-2.03-3.79-2.03-3.79l-.61-4.8s.81-4.33.81-4.33l2.23-3.52s3.45-2.7,3.45-2.7c0,0,3.79-1.49,3.79-1.49,3.8-1.07,9.14-.81,13.05-.81,2.61.7,5.82,2.41,8.05,3.92,3.43,4.18,4.98,12.77,7.03,17.65,0,0,7.91-.54,7.91-.54-.14-7.34.75-17.63,2.1-24.88-10.34-4.46-25.26-5.09-36.38-4.53-10.58,1.05-20.72,5.23-26.51,14.61-3.79,7.81-3.94,18.51-.41,26.44,5.88,10.79,19.43,16.05,30.16,20.62,7.15,3.51,16.6,8.79,17.58,17.58.18,3.81.2,6.45-1.49,10.14,0,0-3.72,3.72-3.72,3.72-6.4,4.08-15.87,3.94-22.92,1.76-9.16-4.49-11.23-16.47-15.35-24.88,0,0-7.78,0-7.78,0Z"/>
  <path class="cls-1" d="m302.54,51.32l22.18.81c6.78-.12,21.8-.98,28.67-1.44v7.57l-8.34,1.94-2.84,1.08-1.49,1.17-1.04,1.62s-.54,1.8-.54,1.8v1.76c6.24,18.84,16.11,44.4,23.17,62.97,7.99-17.64,19.06-43.53,25.6-61.76v-3.25l-1.26-2.48-1.8-1.62-3.29-1.31-6.4-1.85.09-7.66c4.69.14,16.72.51,21.23.77,0,0,19.83-.77,19.83-.77v7.71s-2.39,1.67-2.39,1.67c0,0-.99.9-.99.9,0,0-2.07.95-2.07.95l-4.01,1.85-2.12,1.53s-1.98,2.52-1.98,2.52c-10.54,23.62-22.91,53.43-33.31,77.17,0,0-8.16,17.58-8.16,17.58,0,0-6.67,10.95-6.67,10.95l-5.82,7.26-5.68,5.68s-5.91,4.42-5.91,4.42c0,0-5.36,3.07-5.36,3.07,0,0-5.77,2.07-5.77,2.07l-5.14,1.13s-5.72.41-5.72.41h-4.69s-5.86-.72-5.86-.72l-5.91-1.49s-7.75-3.88-7.75-3.88l2.88-12.13c.57-3.52,2.16-13.41,2.52-16.81l8.56-.72c.89,4.44,2.7,13.54,3.56,17.94l1.94,2.75,1.76,1.08,2.57.81h3.47l4.24-.54,4.37-1.35,5.23-2.61,6.72-5.36,7.17-8.11,5.72-8.93c-10.44-26.75-25.46-63.98-37.37-90.11,0,0-2.48-4.06-2.48-4.06l-2.52-1.76c-1.65-.54-5.27-1.72-6.9-2.21l.09-8.02Z"/>
</svg>