<?xml version="1.0" encoding="UTF-8"?>
<svg id="Calque_1" data-name="Calque 1" xmlns="http://www.w3.org/2000/svg" viewBox="0 0 217.37 225.01">
  <defs>
    <style>
      .cls-1 {
        fill: #1d1d1b;
      }

      .cls-1, .cls-2, .cls-3, .cls-4 {
        stroke: #000;
        stroke-miterlimit: 10;
      }

      .cls-2 {
        fill: #616160;
      }

      .cls-3 {
        fill: #fff;
      }

      .cls-4 {
        fill: #3c3c3b;
      }
    </style>
  </defs>
  <path class="cls-4" d="m190.23,49.5l-47.23,116.57c-2.38,1.18-8.02,9.73-11,11.03-4.61,2.02-17.55,7.48-32.26,10.86-14.61,3.36-25.77,5.94-36.9,3.75-26.7-5.24-41.01-35.47-48.77-51.87-7.12-15.04-19.32-40.8-10.45-70.06,5.14-16.97,15.13-27.73,20.77-33.68C45.56,13.8,71.34,7.87,84,5.14c18.26-3.95,54.22-11.72,82.19,10.06,14.38,11.2,21.01,25.82,24.04,34.3Z"/>
  <path class="cls-1" d="m87.35,72.23l-5.55-8c-7.45-1.16-13.72,10.08-21.03,8.65-6.82-2.94-9.13-11.81-13.94-16.52-4.97-5.65,1.1-13.52,4.39-18.32-.69-.6-6.8-1.61-7.74-1.16,5.81-10.59,16.93-18.46,24.41-27.54-4.37,1.82-13.14,6-16.8,8.96-3.84,5.71-11.68,11.98-13.03,18.97-1.67,5.63.71,4.13,5.03,4.07,5.36-3.27-3.91,8.75-2.84,10.64,3.93,8.42,9.2,17.54,16.13,23.61,10.93,5.42,10.37-3.02,19.36-5.81,1.41.44,3.31-.89,4.26-1.81,1.77,1.52,5.5,7.4,6.84,9.35l.52-5.09Z"/>
  <path class="cls-2" d="m70.58,142.75s20.9,34.45,20.9,34.45c1.06,10.61,7.04,29.15,14.91,36.77,34.19,5.12,76.21,18.95,109.35,3.29,4.71-12.56-6.75-25.76-7.35-38.13.7-4.5.57-5.9-4.45-6-3.56-.64-9.57-2.82-13.35-2.32-13.68,9.32-37.14,10.54-53.03,11.81-3.26-1.23-3.71,4.72-4.06,6-8.69-2.45-15.22-11.95-18.77-19.74-.9-10.12,1.91-27.32-9.29-32.71-3.22,1.85-1.79,8.94-1.55,11.81-3.07,18.06-24.09-3.22-33.29-5.23Z"/>
  <path class="cls-2" d="m134.83,158.62c15.59-6.03,14.03,1.73,25.94-11.03,3.33-.24,11.14-.58,13.74-3.1,0,0,6.97,0,6.97,0,1.64-.59,6.74-2.51,8.13-.58,1.54-2.48,3.97-3.37,6.78-2.9,1.43-.43,5.29-.91,6.77-.77.94-5.35-3.91-11.39-6.77-15.48-.84-6.41,9.61-3.88,12.39-4.45,12.13-2.51,5.06-23.09-1.36-31.16-5.59-7.13-10.71-21.08-8.9-29.81.73-3.51-2.85-6.19-4.84-8.13-22.81-11.39-20.54-8.6-41.22,1.74-13.06-7.4-17.41-11.83-32.71-5.81-8.91,3.32-15.25,7.74-19.19,10.94-4.5,3.66-9.79,8.06-13.33,15.48-2.19,4.59-3.06,9-3.29,10.26-.22,1.21-.93,5.03-.68,8.61.67,9.69,7.97,12.75,8.32,18.1.29,4.4-4.07,10.88-25.26,19.84-5.14,5.47,3.47,6.56,6.58,8.32,5.21.79,14.46-.03,19.16-2.52,10.35-1.68,22.35-1.53,32.71,0,4.14,4.57,5.37,16.84,6.97,22.45,0,0,3.1,0,3.1,0Z"/>
  <g>
    <path class="cls-1" d="m131.25,61.85c-6.5-2.31-12.94.98-20.2,4.69-8.13,4.16-12.94,6.62-15.61,12.54-2.45,5.44-2.79,13.12,1.27,19,3.25,4.7,7.92,6.59,10.82,7.32,10.36,2.61,25.33.43,32.81-7.55,6.39-6.51,8.29-11.12,6.39-20.13-.2-.47-.52-1.15-.97-1.94-.91-1.59-1.78-2.58-2.52-3.48-1.73-2.12-2.29-3.2-3.1-4.26-3.09-4.06-8.42-6.02-8.9-6.19Z"/>
    <path class="cls-1" d="m164.83,69.78c-1.73-3.82,1.16-9.63,5.03-12.58,3.27-2.5,6.76-2.58,11.13-2.68,3.69-.08,8.78-.2,11.94,3.14,1.48,1.57,2.07,3.24,2.48,5.34.82,4.21,2.85,12.98,4.06,17.03,6.96,13.56-3.07,14.85-13.94,14.13-7.04-.64-7.76-3.8-9.29-9.87-1.13-4.47-2.21-6.55-3.16-7.88-3.18-4.46-6.77-3.35-8.26-6.64Z"/>
    <path class="cls-1" d="m167.35,74.1c-6.78,6.74-7.37,17.73-8.52,26.94-1.05,8.44.78,12.42,3.17,14.71.83.79,2.22,2.13,4,2.03,4.38-.24,6.18-8.91,9.43-8.5,1.06.14,2.47,1.27,3.15,2.5.43.78.46,1.4,1.19,2.29.36.44,1.04,1.27,1.9,1.39,1.39.19,2.76-1.5,3.23-2.29,1.69-2.85-.9-6.47-6.52-18.03-2.95-6.06-2.94-6.54-5.26-10.93-2.05-3.89-4.02-7.27-5.77-10.1Z"/>
  </g>
  <g>
    <polygon class="cls-3" points="134.25 158.62 134.25 166.85 140.93 170.52 141.71 166.94 138.71 157.49 134.25 158.62"/>
    <path class="cls-3" d="m146.25,155.52c.76,3.66,2.63,9.62,2.42,13.35-2.41,2.37-4.23,1.42-6.97.98.66-2.09-2.4-10.32-3-12.37l7.55-1.97Z"/>
    <path class="cls-3" d="m152.61,155.2l6.42,10.88-2.42,2.23-1.74-.68-3.29,1.84-2.9-.58c-.03-3.06-1.67-10.33-2.42-13.35l6.35-.33Z"/>
    <path class="cls-3" d="m159.03,149.21c3.83,3.98,7.62,10.67,7.16,16.38l-4.45-.58c-.64.34-2.01.86-2.71,1.06l-6.42-10.88,6.42-5.98Z"/>
    <path class="cls-3" d="m170.06,146.81c1.91,4.57,9.87,13.86,3.97,18.1,0,0-4.84-.48-4.84-.48l-1.38,1.23c-2.07-1.52-1.82-3.28-2.2-5.48,0,0-2.71-6.29-2.71-6.29l-3.87-4.67,1.74-1.62,9.29-.77Z"/>
    <path class="cls-3" d="m178.19,144.49c2.43,3.89,8.12,9.11,7.06,14.13,0,0-4.16,2.71-4.16,2.71-.99-.01-3.96.12-4.84-.39-.12-3.45-4.51-11.17-6.19-14.13l4.45-2.32h3.68Z"/>
    <path class="cls-3" d="m189.61,143.91c1.81,3.66,3.07,9.48,4.26,13.35-4.25,2.49-3.78,2.6-8.61,1.35l-.19-3.97-6.87-10.16c2.17.45,7.23-1.06,9.29-1.74,0,0,2.13,1.16,2.13,1.16Z"/>
    <path class="cls-3" d="m196.38,141.01c2.76,4.68,5.34,11.23,5.52,16.74-1.15.18-3.29,0-4.35-.48,0,0-2.81,1.36-2.81,1.36-.98-.61-2.64-8.32-3-9.41,0,0-2.13-5.3-2.13-5.3,2.86-3.29,2.47-3.01,6.77-2.9Z"/>
    <path class="cls-3" d="m203.16,140.23l3.19,6.58,1.16,8.38c-.52,1.32-2.09,3.69-3,4.78l-2.61-2.23-.87-6c-.68-2.83-3.17-8.22-4.65-10.74,1.57-.34,5.19-.98,6.77-.77Z"/>
    <polygon class="cls-3" points="138.32 182.56 140.58 170.53 146.25 170.52 147.3 181.91 138.32 182.56"/>
    <path class="cls-3" d="m151.58,169.46l3.13,1.07c.47,2.12,1.81,8.28,2.4,10.27-2.41.37-7.41.99-9.81,1.11l-1.04-11.39c2.44-1.82,2.39-1.77,5.32-1.06Z"/>
    <path class="cls-3" d="m156.61,168.3l-1.9,2.23,2.4,10.27,11.6-1.86-2.52-12.87c-4.75-1.37-5.96-1.42-9.58,2.23Z"/>
    <path class="cls-3" d="m174.03,164.91l4.16,11.82-9.48,2.21-2.52-12.87c3.22-2.22,4.31-1.48,7.84-1.16Z"/>
    <path class="cls-3" d="m182.49,160.42l1.71,13.96c-1.4.82-4.4,2.15-6.01,2.35l-4.16-11.82,1.88-1.88.34-2.08c.87.5,3.85.39,4.84.39,0,0,1.4-.91,1.4-.91Z"/>
    <path class="cls-3" d="m189.71,159.59l.52,11.44-6.02,3.35-1.71-13.96c3.33-2.6,3.51-1.5,7.22-.83Z"/>
    <polygon class="cls-3" points="194.74 158.62 196.38 171.34 190.58 170.81 189.71 159.59 193.87 157.27 194.74 158.62"/>
    <path class="cls-3" d="m199.58,157.85l2.05,14.74-5.24-1.25-1.65-12.72c1.92-.9,2.63-1.75,4.84-.77Z"/>
    <path class="cls-3" d="m204.51,159.98l.61,13.35-3.5-.74-2.05-14.74c2.74-.46,3.05.6,4.94,2.13Z"/>
    <path class="cls-3" d="m205.98,157.99l2.84,4.11c0,2.62,0,9.27-.05,11.81l-3.64-.58-.61-13.35,1.47-1.98Z"/>
  </g>
</svg>