<?xml version="1.0" encoding="UTF-8"?>
<svg id="Calque_1" data-name="Calque 1" xmlns="http://www.w3.org/2000/svg" viewBox="0 0 215.87 309.47">
  <defs>
    <style>
      .cls-1 {
        fill: none;
      }

      .cls-1, .cls-2 {
        stroke: #000;
      }

      .cls-1, .cls-2, .cls-3, .cls-4 {
        stroke-miterlimit: 10;
      }

      .cls-2, .cls-3 {
        fill: #fff;
      }

      .cls-3, .cls-4 {
        stroke: #1d1d1b;
      }

      .cls-4 {
        fill: #616160;
      }
    </style>
  </defs>
  <g>
    <path class="cls-4" d="m1.13,8.41c-.21,97.02-.41,194.04-.62,291.06-.04.86-.04,3.06,1.39,5.13,1.08,1.57,2.43,2.31,3.4,2.82,2.7,1.42,5.33,1.45,6.8,1.34l193.19.2c.92.05,3.7.09,5.66-1.83.93-.91,1.35-1.95,1.75-2.93.79-1.94.96-3.68.97-4.78.56-96.76,1.13-193.52,1.69-290.28-.09-.91-.42-2.81-1.83-4.58-1.1-1.38-2.35-2.03-3.33-2.54-1.02-.53-2.81-1.31-5.28-1.51-65.07.02-130.13.04-195.2.06-1.36.29-3.32.92-5.2,2.38-.76.59-1.78,1.4-2.55,2.85-.54,1.02-.76,1.98-.85,2.62Z"/>
    <path class="cls-3" d="m18.81,39.58c3.76-1.24,6.21-3.06,6.77-3.48,1.99-1.51,3.24-3.01,3.77-3.68.74-.94,2.13-2.71,3.05-5.27,1.57-4.38,1.11-9.24,1.11-9.24h63.8l-6.75,6.19h-50.36c-.15,3.88-1.27,6.61-2.09,8.18-1.31,2.5-3.01,4.3-5.37,6.77-1.01,1.07-1.92,2.02-3.18,3.07-1.69,1.41-4.43,3.34-8.43,4.82l.39,219.48c3.15,1.8,5.15,3.91,6.29,5.32,2.79,3.45,3.83,6.92,4.55,9.39.72,2.48,1.02,4.63,1.16,6.19h55.35l6.19,8.9-69.58-.77c-.16-4.51-.93-8.11-1.62-10.57-.52-1.83-1.1-3.84-2.44-6.27-1.66-3-3.48-4.84-3.97-5.32-1.64-1.62-3.25-2.7-4.45-3.39V40.75c2.43-.19,4.41-.7,5.81-1.16Z"/>
    <path class="cls-3" d="m194.39,39.58c-3.43-1.14-5.93-2.85-7.51-4.13-1.29-1.08-3.2-2.96-4.69-5.8-.83-1.58-1.23-2.9-1.48-3.74-.53-1.76-1.13-4.5-1.03-8h-63.8l6.75,6.19h50.36c.87,3.43,2.07,6.15,3.07,8.06,1,1.91,2.43,4.61,5.16,7.42,1.98,2.03,3.83,3.3,5.16,4.19,2.17,1.46,4.15,2.47,5.68,3.16l-.39,219.48c-1.42.72-3.43,1.94-5.42,3.94-3.44,3.44-4.75,7.13-5.29,8.71-1.1,3.22-1.33,6.13-1.29,8.26h-55.35l-6.19,8.9c23.63-.54,47.24.54,70.87,0-.7-4.65-.26-9.92.18-12.21.53-2.75,1.24-4.29,1.46-4.76,1.32-2.77,3.08-4.48,4.19-5.55,1.13-1.09,2.9-2.54,5.36-3.81V40.75c-1.58-.12-3.59-.42-5.81-1.16Z"/>
    <polygon class="cls-2" points="103.7 27.96 97.32 47.23 105.02 74.81 112.38 47.42 105.78 21.79 103.7 27.96"/>
    <polygon class="cls-2" points="107.32 239.97 97.32 262.16 107.19 289 116.56 264.49 107.32 239.97"/>
  </g>
  <g>
    <path class="cls-2" d="m41.68,98.54c-1.99,2.64-3.17,5.11-3.87,6.9-1.15,2.94-2.03,5.25-1.55,8.23.55,3.38,2.54,5.57,3.32,6.42,2.31,2.49,4.95,3.45,6.16,3.81-1.01,2.42-1.54,4.51-1.84,5.97-.66,3.23-1.11,5.4-.23,7.94.73,2.12,2.03,3.44,2.71,4.13,1.08,1.08,3.13,3.15,5.94,3.29,1.63.08,2.49-.54,5-.26.86.1,1.56.26,2.03.39-.5.99-2.93,6.1-.77,11.68.48,1.24,2.15,5.56,6.58,7.1,2.34.81,4.45.5,5.58.25-.27,1.69-.52,4.12-.35,7.05.21,3.63.32,5.52,1.52,7.32,2.42,3.64,7.41,4.13,9.97,4.39,3.85.38,7.12-.45,9.39-1.32.39.72,1.1,1.82,2.29,2.84,2.47,2.12,5.9,2.93,8.81,2.32,1.08-.22,1.99-.64,3.81-1.48,1.53-.71,2.76-1.41,3.61-1.93-.27,3.5-.26,10.31,3.49,16.9,1.05,1.84,2.61,4.51,5.81,6.68,2.97,2.01,5.92,2.62,7.62,2.84h0c3.1.76,6.2,1.53,9.3,2.29,1.56.18,3.6.5,5.93,1.16,0,0,3.09.87,5.71,2.13,6.69,3.21,11.49,10.82,12.69,12.71,3.98,6.3,5.7,12.47,6.48,16.96,1.89-7.87,2.16-14.53,2.03-19.16-.19-7.02-.52-15.23-5.84-22.8-.68-.96-1.29-1.72-1.72-2.22.54-3.5.92-7.72.82-12.49-.09-4.52-.6-8.52-1.23-11.87-2.1-2.4-5.81-6.02-11.44-8.79-4.4-2.16-8.43-3.04-11.26-3.43,5.81-2.76,19.55-9.62,11.45-16.88.83-.53,4.01-2.69,5.26-6.97.09-.31,1.78-6.21-1.04-9.3-1.09-1.19-2.06-2.26-3.54-2.62-.45-.11-1.14-.2-1.65-.77-.37-.43-.47-.92-.62-1.73-.08-.42-.22-1.22-.16-2.14.13-1.87,1-2.6,1.45-4.06.92-2.99-.87-6.03-1.31-6.77-1.06-1.8-2.43-2.82-3.19-3.39-.32-.23-1.31-.94-2.76-1.55-2.67-1.12-5.21-1.2-6.91-1.07.55-2.62,1.16-4.62,1.64-6.01.5-1.44,1.05-2.81.61-4.45-.2-.74-.51-1.24-.84-1.74-.35-.54-1.73-2.55-4.71-4-1.83-.89-3.33-1.11-5.42-1.4-1.83-.25-4.46-.47-7.69-.19-.16-.85-.51-2.2-1.4-3.63-.67-1.07-1.44-2.31-3-3-1.78-.79-3.5-.36-4.16-.16-.15-.78-.48-1.95-1.35-3.03-1.45-1.81-3.5-2.3-5.61-2.81-1.27-.3-3.16-.61-5.52-.45.37.24,3.51,2.34,3.34,5.15-.02.29-.07.93-.48,1.55-1.03,1.52-3.38,1.55-4.71,1.29-1.6-.32-2.67-1.28-3.17-1.82.21.88.36,1.52.62,2.23.25.66.72,1.92,1.66,3.11,1.3,1.64,2.95,2.47,4.04,2.88,0,.72.11,1.35.26,1.9,1.28,4.77,6.94,6.71,7.98,7.05-.11,1.3-.33,5.86,2.76,9.44,1.96,2.27,4.46,3.22,6.05,3.82,2.45.93,4.63,1.16,6.1,1.21.05.55.14,1.38.29,2.37.64,4.2.97,6.39,2.49,8.21,1.25,1.5,2.77,2.12,5.06,3.07,1.96.81,3.69,1.17,4.9,1.35-2.01,1.08-3.46,2.22-4.41,3.06-2,1.76-2.31,2.67-2.42,3.05-.35,1.24.12,2.23.43,3.65.65,2.96,1.45,5.31,2.04,6.87-.9.32-2.47,1.01-3.97,2.46-.16.15-1.98,1.96-2.79,4.48-1.81,5.65,2.7,11.04,2.95,11.34-2.33.17-6.34.76-10.69,3.08-3.8,2.03-6.32,4.57-7.76,6.27-1.1-1.03-2.94-2.51-5.56-3.59-3.03-1.25-5.72-1.41-7.31-1.39-1.27-1.75-2.4-3.17-3.26-4.22-3.66-4.46-5.19-5.47-6.52-6.06-1.07-.49-2.08-.75-2.52-.84-1.73-.37-3.12-.23-4.45-.29.25-2.51.39-4.19.13-5.94-.16-1.05-.5-3.16-1.68-5.06-2.54-4.09-7.57-4.96-8.74-5.13.13-.93,1.34-10.38-5.5-16.58-3.47-3.15-7.4-3.99-9.28-4.26.61-1.62,1.5-4.64,1.19-8.45-.27-3.46-1.41-6.09-2.19-7.58,1.76-.43,3.04-1.14,3.81-1.65.99-.65,1.99-1.31,2.68-2.62.1-.19.57-1.11.66-2.41.11-1.69-.46-3.01-.8-3.65-.8.64-1.91,1.37-3.33,1.95-.7.29-1.37.49-1.96.63-.59-.04-1.6.23-3.03-.88-.79-.61-1.39-1.39-1.47-1.51-.14-.2-.49-.92-.71-1.42-.48-1.1-.65-2.39-.97-3.85-.14-.64-.05-1.63-.15-2.84-.51.23-4.83,2.05-5.92,6.31-.81,3.16-.03,5.79.32,6.52Z"/>
    <path class="cls-4" d="m129.42,165.36c-2.43.17-4.68.61-6.72,1.2-2.28.52-5.2,1.5-8.19,3.45-1.36.89-2.28,1.5-3,2.56-2.53,3.73-.06,9.16.44,10.21-.08.77-.16,1.86-.15,3.15.02,1.3.17,4.89,1.79,9.19,1.31,3.46,2.95,5.75,3.29,6.22,1.27,1.75,2.5,3.43,4.66,4.75,1.67,1.02,2.74,1.11,7.22,2.13,1.71.39,4.25.99,7.36,1.81,3.13-.33,6.7.38,9.55,1.68,8.98,4.07,13.96,11.44,16.65,15.94,2.12,3.56,3.38,6.72,4.09,8.75.56-6.44.34-11.82-.03-15.78-.7-7.54-2-10.72-2.71-12.26-1.47-3.18-3.28-5.51-4.65-7.03.42-3.55.68-7.76.49-12.48-.19-4.67-.78-8.81-1.48-12.29-3.81-3.43-14.58-12.16-28.62-11.18Z"/>
    <path class="cls-4" d="m108.84,177.22c-.68-1.01-1.7-2.31-3.19-3.56-1.16-.97-2.28-1.65-3.21-2.12-2.38-1.21-3.84-1.48-4.77-1.47-.17,0-1.13.02-2.58.02-.49,0-.89,0-1.16,0,.07.54.13,1.35,0,2.32-.23,1.76-.96,3.34-1.03,3.48-.39.81-.82,1.47-.9,2.58-.03.33-.01.6,0,.77.27.41.66,1,1.16,1.68.72.99,1.09,1.49,1.64,2,.37.35.95.89,1.85,1.33.92.45,1.7.56,2.55.68.84.11,1.94.26,3.24,0,.67-.14,1.45-.53,2.98-1.3,1.77-.9,2.27-1.27,3.74-1.94.79-.36,1.45-.62,1.87-.77-.28-.53-.61-1.29-.81-2.26-.23-1.17-.16-2.16-.06-2.81-.44.45-.88.9-1.32,1.35Z"/>
    <path class="cls-4" d="m93.94,170.74c-.2-.96-.66-1.42-1.94-3.1-1.01-1.34-.76-1.1-1.75-2.4-1.1-1.44-1.94-2.42-2.19-2.7-1.06-1.23-1.6-1.85-2.06-2.19-1.34-.98-2.72-1.3-3.42-1.45-.73-.16-1.25-.19-2.16-.25-1.89-.11-2.83-.17-3.66.19-.92.39-3.13,2.47-2.37,1.83h0s-.45.71-1.35,2.13c.1,2.12.06,3.83,0,4.97-.13,2.57-.41,4.33,0,6.97.23,1.44.51,2.18.98,2.84.75,1.03,1.69,1.49,2.89,2.06,1.81.87,3.38,1.13,4.4,1.29.46.07,1.96.29,3.92.19,1.55-.08,2.82-.15,4.26-.84.69-.33,1.21-.7,1.55-.97l.97-.84c.76-1.64,1.61-3.84,1.94-6.06.09-.6.12-1.09,0-1.68Z"/>
    <path class="cls-4" d="m68.13,143.03c-2.4-.05-4.21.8-5.03,1.26-.38.2-.94.55-1.42,1.16-.62.79-.76,1.58-1.16,4.65-.22,1.66-.33,2.5-.32,2.71.03,2.07.7,3.61,1.03,4.34.18.4,1,2.16,2.77,3.85.9.85,1.34,1.28,2.06,1.55,1.23.46,2.1.11,4.52,0,1.13-.05,2.05-.03,2.62,0,.37-.91.84-1.5,1.19-1.87.51-.53.99-.81,1.94-1.74.26-.26.47-.48.6-.62.35-1.81.37-3.36.31-4.48-.04-.73-.14-1.79-.42-3.03-.46-2.03-1.11-3.33-1.26-3.61-.34-.65-.58-1.12-1.06-1.65-.16-.17-.79-.83-2.16-1.48-.66-.31-2.14-.99-4.19-1.03Z"/>
    <path class="cls-4" d="m52.29,121.7c-.25.03-1.45.17-2.74.97-.37.23-1.11.7-1.74,1.55-.85,1.15-.72,1.96-1.58,5.64-.3,1.28-.28,1.01-.4,1.61-.36,1.81-.73,3.61-.14,5.46.43,1.38,1.22,2.24,2.06,3.16.67.73,1.89,2.05,3.74,2.77,2.34.91,3.53.02,6.9.32,2.08.19,3.72.72,4.71,1.1.99-.36,1.98-.72,2.96-1.08,0-.41,0-.99,0-1.7-.02-1.53-.03-2.93-.14-4.35-.11-1.54-.28-3.66-1.07-6.17-.38-1.21-.72-1.91-.95-2.35-.66-1.25-1.39-2.1-1.81-2.58-.47-.54-1.06-1.22-1.97-1.9-1.68-1.26-3.32-1.67-5.06-2.1-1.2-.3-1.85-.45-2.77-.35Z"/>
    <path class="cls-4" d="m48.76,102.8c-.61-.65-1.23-1.29-1.84-1.94l-2.47-1.55c-.6.58-1.24,1.28-1.89,2.13-.5.66-.92,1.3-1.26,1.89-.47.75-1.07,1.79-1.65,3.1-.41.91-.81,1.83-1.11,3.1-.31,1.26-.57,2.35-.37,3.8.21,1.55.87,2.69,1.34,3.51.52.9,1,1.47,1.16,1.65.21.24.69.76,1.55,1.4,1.19.89,2.22,1.37,3.73,2.03.69.3,1.62.7,2.76,1.11.3-.13,1.3-.55,1.6-.68.27-.11,1.23-.52,1.49-.63-.01-.2-.05-.48-.17-.79-.09-.24-.21-.43-.31-.56.07-.2.18-.5.29-.87.31-1.03.44-1.86.53-2.47.32-2.21.49-3.32.48-4.55,0-.81-.01-2.01-.34-3.53-.29-1.35-.7-3.17-2.13-4.84-.53-.62-1.05-1.04-1.4-1.31Z"/>
    <path class="cls-4" d="m45.9,88.38c-.57.46-1.48,1.33-2.08,2.71-.51,1.18-.56,2.2-.58,2.71-.05,1.24.2,2.19.53,3.44.24.89.49,1.6.68,2.08l5.71,3.68c1.13-.38,2.06-.76,2.76-1.06,1.66-.73,2.44-1.24,2.76-1.45.85-.58,1.35-.92,1.74-1.6.45-.78.5-1.57.48-2.03-.52.27-1.28.6-2.23.82-.62.15-1.18.45-2.18.47-.36,0-1.08.13-2.27-.44-.56-.26-1.79-.72-2.71-1.42-.39-.29-.67-.56-.89-.81-.24-.28-.49-.59-.8-1.12-.25-.42-.74-1.24-1-2.02-.52-1.55-.17-3.12.08-3.95Z"/>
    <path class="cls-4" d="m147.52,148.31c-1.38-1.01-2.65-1.34-4.14-1.72-4.49-1.13-8.02-.41-8.8-.24-1.26.28-2.16.62-2.42.72-1.4.55-3.69,1.47-5.3,3.7-.83,1.14-1.14,2.16-1.21,2.4-.19.63-.4,1.67-.27,2.9.1.95.39,1.65.97,3.05.26.64.46,1.04,1.18,2.53.13.26,1.27,2.62,1.41,2.89h1.9l3.68.75c.65-.67,1.56-1.48,2.75-2.21.86-.53,1.68-.91,2.39-1.18,2.11-1.04,6.71-3.53,9.22-7.17.89-1.29,1.21-2.28,1.06-3.26-.23-1.57-1.6-2.57-2.42-3.17Z"/>
    <path class="cls-4" d="m146.9,128.99c-1.97-1.03-2.7-1.16-3.23-1.19-.33-.02-1.42-.07-4.16,1.13-1.77.77-3.28,1.65-4.71,2.61-2.78,1.87-4.17,2.8-4.58,4.26-.24.87-.12,1.58.58,3.9.55,1.82,1.32,4.21,2.38,7.01.81-.24,1.99-.53,3.43-.67,2.5-.25,4.45.09,5.74.32.99.18,2.31.47,3.84,1.01,1.36-.67,3.41-1.92,5.08-4.18.81-1.09,1.95-2.63,2.23-4.97.09-.74.33-3.14-1.06-5.35-.91-1.45-2.46-2.26-5.55-3.87Z"/>
    <path class="cls-4" d="m138,108.93c-1.51-.2-2.6-.06-4.23.16-2.78.37-4.41.59-6.03,1.81-.49.36-1.61,1.22-2.32,2.74-1.06,2.26-.52,4.55.09,7.18.3,1.3.46,1.95.84,2.5,1,1.42,2.67,1.94,5.39,2.77.98.3,1.48.39,3.06.9.98.32,1.3.45,2.13.71.8.25,1.87.56,3.16.85.79-.19,1.87-.36,3.16-.31,1.64.07,2.95.48,3.81.83-1.42-3.31-1.21-5.53-.68-6.99.57-1.58,1.12-2.46,1-4.23-.12-1.74-.95-3.02-1.61-4.03-.47-.71-1.53-2.31-3.58-3.52-1.77-1.04-3.38-1.28-4.19-1.39Z"/>
    <path class="cls-4" d="m133.77,94.77c-2.16-2.08-4.87-2.58-7.19-3-1.35-.24-2.34-.29-4.26-.39-1.8-.09-2.93-.05-4.13.13-.57.08-1.03.18-1.35.26-.81.97-1.75,1.99-2.84,3.03-1.62,1.54-3.21,2.77-4.65,3.74-.08.87-.1,1.92,0,3.1.11,1.25.34,2.34.58,3.23.21.7.71,2.01,1.9,3.23.9.91,1.83,1.42,2.45,1.68,1.24.65,2.33,1.06,3.13,1.32.66.21,1.22.35,1.52.42.94.23,1.63.34,2.55.48.69.11,1.59.24,2.65.35l.7,3.81c.04-.51.32-3.33,2.76-5.33,1.99-1.63,4.19-1.71,4.84-1.71.45-1.46.84-2.64,1.1-3.42.41-1.25,1.02-3.04,1.61-5.32.43-1.65.48-2.14.38-2.74-.06-.35-.31-1.5-1.73-2.87Z"/>
    <path class="cls-4" d="m110.9,84.29c-.65-.09-.98-.13-1.42-.1-1.24.09-2.11.63-2.9,1.13-.58.36-1.16.89-2.32,1.94-1.43,1.28-1.76,1.72-1.94,1.97-.8,1.12-1.01,1.6-1.03,2.03-.02.42.08.72.26,1.24.35,1.05.9,1.74,1.02,1.89.54.67,1.07,1.01,1.94,1.57.26.17.95.6,1.91,1.01.66.28,1.23.53,2.05.66.53.09.98.1,1.16.09,1.27-.03,2.26-.92,4.37-2.92,2.61-2.46,2.73-2.64,2.84-3.03.41-1.53-.39-3.01-1.11-4.35-.54-1-.98-1.81-1.94-2.37-.84-.49-1.79-.61-2.89-.76Z"/>
    <path class="cls-2" d="m126.85,182.09c2.6,2.15,4.98,3.41,6.06,3.94,3.14,1.54,4.71,2.3,6.61,2.52,1.14.13,2.29.1,3.19.97.79.76,1,1.85,1.16,2.71.25,1.32.13,2.43,0,3.1-1.72-1.42-3.28-2.13-4.35-2.52-3.09-1.11-4.31-.28-8.95-1.4-1.67-.41-2.86-.84-4.4-1.4-2.38-.87-3.59-1.32-4.26-2.03-.59-.63-1.17-1.6-1.45-5.87-.12-1.85-.2-4.33,0-7.29,1.47,2.33,3.54,4.92,6.39,7.29Z"/>
    <path class="cls-2" d="m140.19,210.03l-2.37-4.84,7.47,4.06v-2.52c1.38,1.1,3.15,2.79,4.65,5.23.64,1.04,1.12,2.04,1.48,2.95-.62-.45-1.41-.99-2.37-1.55-.46-.27-1.69-.96-3.37-1.66-1.35-.56-3.19-1.21-5.48-1.68Z"/>
    <path class="cls-2" d="m158.7,180.25c-.02,1.4-.27,4.13-2.05,6.75-.59.86-1.22,1.54-1.81,2.06-.07.17-.16.42-.23.74-.16.7-.12,1.25-.09,1.61.04.59.07,1.42.08,2.58.61-.48,1.22-.96,1.83-1.45.12-.51.35-1.28.84-2.1.77-1.3,1.67-1.84,2.1-2.29.84-.88,1.31-2.87-.66-7.91Z"/>
    <path class="cls-1" d="m159.03,201.32c-2.15.38-3.88.89-5.13,1.31-1.61.54-2.44.96-3.19,1.45-.85.55-1.47,1.13-1.89,1.55"/>
    <path class="cls-4" d="m96,85.96c.26.47,1.14,1.92,2.84,2.42,1.05.31,1.97.13,2.67,0,1.27-.24,2.15-.77,2.75-1.13.83-.5,1.33-.98,2.32-1.94,1.08-1.04,1.26-1.41,1.35-1.68.06-.17.38-1.12,0-2.06-.48-1.2-1.76-1.69-3.09-2.19-.85-.32-1.6-.47-2.12-.55.28.29.78.91,1.02,1.84.11.45.35,1.68-.29,2.84-.45.81-1.11,1.2-2.36,1.94-.64.37-1.04.61-1.61.77-1.35.4-2.63.07-3.48-.26Z"/>
  </g>
</svg>