<?xml version="1.0" encoding="UTF-8"?>
<svg id="Calque_1" data-name="Calque 1" xmlns="http://www.w3.org/2000/svg" viewBox="0 0 215.87 309.47">
  <defs>
    <style>
      .cls-1 {
        fill: none;
      }

      .cls-1, .cls-2, .cls-3 {
        stroke: #000;
      }

      .cls-1, .cls-2, .cls-3, .cls-4, .cls-5 {
        stroke-miterlimit: 10;
      }

      .cls-2, .cls-5 {
        fill: #616160;
      }

      .cls-3, .cls-4 {
        fill: #fff;
      }

      .cls-4, .cls-5 {
        stroke: #1d1d1b;
      }
    </style>
  </defs>
  <g>
    <path class="cls-5" d="m1.13,8.41c-.21,97.02-.41,194.04-.62,291.06-.04.86-.04,3.06,1.39,5.13,1.08,1.57,2.43,2.31,3.4,2.82,2.7,1.42,5.33,1.45,6.8,1.34l193.19.2c.92.05,3.7.09,5.66-1.83.93-.91,1.35-1.95,1.75-2.93.79-1.94.96-3.68.97-4.78.56-96.76,1.13-193.52,1.69-290.28-.09-.91-.42-2.81-1.83-4.58-1.1-1.38-2.35-2.03-3.33-2.54-1.02-.53-2.81-1.31-5.28-1.51-65.07.02-130.13.04-195.2.06-1.36.29-3.32.92-5.2,2.38-.76.59-1.78,1.4-2.55,2.85-.54,1.02-.76,1.98-.85,2.62Z"/>
    <path class="cls-4" d="m18.81,39.58c3.76-1.24,6.21-3.06,6.77-3.48,1.99-1.51,3.24-3.01,3.77-3.68.74-.94,2.13-2.71,3.05-5.27,1.57-4.38,1.11-9.24,1.11-9.24h63.8l-6.75,6.19h-50.36c-.15,3.88-1.27,6.61-2.09,8.18-1.31,2.5-3.01,4.3-5.37,6.77-1.01,1.07-1.92,2.02-3.18,3.07-1.69,1.41-4.43,3.34-8.43,4.82l.39,219.48c3.15,1.8,5.15,3.91,6.29,5.32,2.79,3.45,3.83,6.92,4.55,9.39.72,2.48,1.02,4.63,1.16,6.19h55.35l6.19,8.9-69.58-.77c-.16-4.51-.93-8.11-1.62-10.57-.52-1.83-1.1-3.84-2.44-6.27-1.66-3-3.48-4.84-3.97-5.32-1.64-1.62-3.25-2.7-4.45-3.39V40.75c2.43-.19,4.41-.7,5.81-1.16Z"/>
    <path class="cls-4" d="m194.39,39.58c-3.43-1.14-5.93-2.85-7.51-4.13-1.29-1.08-3.2-2.96-4.69-5.8-.83-1.58-1.23-2.9-1.48-3.74-.53-1.76-1.13-4.5-1.03-8h-63.8l6.75,6.19h50.36c.87,3.43,2.07,6.15,3.07,8.06,1,1.91,2.43,4.61,5.16,7.42,1.98,2.03,3.83,3.3,5.16,4.19,2.17,1.46,4.15,2.47,5.68,3.16l-.39,219.48c-1.42.72-3.43,1.94-5.42,3.94-3.44,3.44-4.75,7.13-5.29,8.71-1.1,3.22-1.33,6.13-1.29,8.26h-55.35l-6.19,8.9c23.63-.54,47.24.54,70.87,0-.7-4.65-.26-9.92.18-12.21.53-2.75,1.24-4.29,1.46-4.76,1.32-2.77,3.08-4.48,4.19-5.55,1.13-1.09,2.9-2.54,5.36-3.81V40.75c-1.58-.12-3.59-.42-5.81-1.16Z"/>
    <polygon class="cls-3" points="103.7 27.96 97.32 47.23 105.02 74.81 112.38 47.42 105.78 21.79 103.7 27.96"/>
    <polygon class="cls-3" points="107.32 239.97 97.32 262.16 107.19 289 116.56 264.49 107.32 239.97"/>
  </g>
  <g>
    <path class="cls-3" d="m54.07,120.04c11.76-7.24,24.59-9.23,33.09-10.07,0,0,9.77-1.67,30.1-.55,0,0,4.67.45,11.86,1.27h0c.4-2.62,4.34-31.53,4.9-33.32.77-2.17,2.9-4.09,5.35-4,4.25.05,12.71-.99,11.55,5.65-.57,6.91-3.2,26.87-4.06,34.06,7.55,2.41,18.05,5.24,21.87,12.89,2.73,9.45,1.16,14.53-5.48,19.31-5.32,3.82-13.79,4.88.83,4.98,1.55.01,6.88.1,9.3,4.11,3.77,7.16,2.96,19.99-6.47,21.14-14.03,1.73-14.49,13.63-12.05,27.97.65,4.57,1.69,10.79-3.1,13.59-1.98,1.16-8.75-.22-11.13-3.97-6.19-11.03-16.24-2.44-22.61-.93-1.65,6.49-4.05,13.13-11.69,11.97-1.87-.28-5.16-5-7.02-10.69-.37-1.13-2.4-1.28-2.47-2.27-2.35-.29-4.88-.68-7.5-1.24-4.76-1-8.41-2.52-11.95,1.63-4.84,5.66-11.26,7.9-14.13,6.06-2.73-1.75-3.04-6.4-3.17-8.29-.17-2.49.25-4.55.64-5.93.62-3.1,2.94-6.74,1.77-8.06-.84-.94.56-7.11-2.09-14.47-.8-2.21-1.43-1-2.27-4.16-.71-3.66-7.5.53-10.09-.71-.96-.46-2.1-1.21-3.25-2.26-2.16-1.97-3.27-4.14-3.83-5.51-2.15-8.32,1.88-19.76,9.92-18.97,18.46,1.81-2.53-2.45-4.21-12.42-1.94-6,.58-13.32,7.4-16.81Z"/>
    <path class="cls-3" d="m55.98,143.48c-13.01,38.78-1.88,69.41,42.1,72.39.12,4.26.96,5.18,3.28,8.22,1.14,1.5,5.29,4.15,6.89,3.91,2.97-.45,6.08-2.68,7.98-5.39.48-.68,1.97-3.62,2.12-5.31.03-.36.17-.73.09-.92,16.87-1.12,35.54-9.12,42.58-25.03,6.3-14.23,4.52-32.72-.9-47.87-28.22,14.56-75.69,13.95-104.13,0Z"/>
    <path class="cls-2" d="m57.91,147.61c-12.33,35.43,1.67,62.2,40.13,66.06-2.09-18.38,22.43-18.64,20,0,38.58-3.52,52.06-30.68,40.77-66.06-30.86,12.99-70.29,14.14-100.9,0Z"/>
    <path class="cls-2" d="m100.5,216.26c-1.69-6.29.18-13.33,6.97-13.93,17.6.27,4.75,34.54-4.65,19.42-.8-1.28-1.74-3.32-2.32-5.48Z"/>
    <polygon class="cls-3" points="105.14 209.93 104.11 212.77 104.11 216.26 106.04 219.22 107.2 220.38 107.2 216.38 106.43 212.51 105.14 209.93"/>
    <path class="cls-3" d="m138.82,194.84c10.23-7.52,12.3-19.18,12-31.1,5.41,11.03.77,27.9-12,31.1Z"/>
    <path class="cls-3" d="m88.37,166.32c15.23,2.36,32.45,2.47,47.35-1.42-7.69,6.51-20.52,6.67-30.06,6.06-3.03-.19-16.58-1.17-17.29-4.65Z"/>
    <path class="cls-3" d="m70.04,175.74c-.06-10.61,4.11-10.22-7.48-13.94-2.65,11.01-1.35,24.69,8.13,32.13-6.45-10.52-7.27-16.97-6.45-29.03l4,1.29,1.81,9.55Z"/>
    <path class="cls-2" d="m141.79,210.45c7.52,9.81,14.43,3.34,10.84-6.97-2.83,2.35-7.65,5.16-10.84,6.97Z"/>
    <path class="cls-2" d="m63.14,203.4c-2.33,11.91,1.76,17.43,11.55,7.43-3.35-1.32-8.84-5.05-11.55-7.43Z"/>
    <path class="cls-2" d="m53.4,152.77c-11.99-3.57-14,21.31-2.32,20.65-.26-6.15.59-14.74,2.32-20.65Z"/>
    <path class="cls-2" d="m162.86,152.77c6.74-.71,8.98,1.8,9.89,8.26.34,4.74-1.28,12.53-7.23,12.39.16-5.82-1.45-14.96-2.67-20.65Z"/>
    <path class="cls-2" d="m51.08,126.58c-13.79,21.21,37.35,26.39,50.09,27.4,14.98.5,77.66-1.79,64.34-27.39-.48,27.26-113.38,26.69-114.43,0Z"/>
    <path class="cls-2" d="m56.62,132.64c-23.15-26.59,119.17-28.76,105.39-1.97-.12.23-.37.45-.85.94-.78.8-1.15,1.02-1.19.95-.1-.2-.42-.46-.55-.56-1.11-.83-4.7-4.4-6.15-5.04-4.24-2-12.99-5.42-17.55-6.32-25.38-3.25-58.78-6.39-79.1,12Z"/>
    <path class="cls-3" d="m51.95,124.93c1.39-1.52,2.61-1.89,3.29-2.27-1.69,2.57-1.78,6.71,1.39,9.98,16.9-19.2,86.14-19.41,103.23,0,2.41-1.41,3.77-5.06,2.94-7.52-.18-.54.03-.21-.98-1.59-1.1-1.5-3.65-3.54-3.98-3.6,1.21.47,6.58,4.69,7.08,5.35,1.39,1.85-.1,4.16-1.03,6.1-2.07,4.31-10.39,8.63-14.74,10.03-13.98,4.49-44.84,5.87-59.48,4.39-10.03-1.01-28.99-4.7-36.43-13.28-2.03-2.34-2.15-4.58-2.15-4.58,0-.57-.11-1.94.87-3.02Z"/>
    <path class="cls-2" d="m58.17,133.68c18.26-17.6,80.78-17,99.87,0-24.67,13.73-75.08,13.28-99.87,0Z"/>
    <path class="cls-3" d="m78.56,135.22c-2.19-8.23,8.97-7.68,7.48.52-1.71-4.07-5.6-5.25-7.48-.52Z"/>
    <path class="cls-3" d="m93.91,134.84c-2.54-11.83,14.37-11.84,11.74,0-1.32-8.82-10.26-6.6-11.74.9v-.9Z"/>
    <path class="cls-3" d="m112.75,137.55c-1.02-8.12,8.32-6.43,6.71.9-1.55-3.17-4.62-4.45-6.71-.9Z"/>
    <path class="cls-1" d="m124.14,133.22c3.62-1.04,8.41-.54,12.1,0,2.46.6,5.9.88,8.32,0h-20.42Z"/>
    <path class="cls-2" d="m128.79,130.9c.56-4.46,6.43-51.29,7.45-53.52.43-.95,1.16-1.45,1.16-1.45.66-.46,1.34-.53,2.03-.58,0,0,3.35-.25,7.18.55.25.05.69.15,1.11.49.4.32.61.73.74.98,0,0,.26.52.36,1.09.23,1.33-6.13,50.41-6.77,55.35-4.18.14-9.23-1.5-13.45-1.16l.19-1.74Z"/>
    <path class="cls-3" d="m81.2,89.55c-5.48,1.16-3.7,11.28,3.48,8.52,5.35-2.06,2.84-10.32-3.48-8.52Z"/>
    <path class="cls-3" d="m99.79,81.55c-1.56.1-2.98,1.41-3.43,2.99-.67,2.35,1.1,4.14,1.36,4.4.32.31,1.68,1.53,3.48,1.32,1.68-.19,3.23-2.74,3.35-3.9.35-3.39-2.23-4.97-4.77-4.81Z"/>
    <path class="cls-3" d="m112.04,99.16c-5.13-1.06-6.31,5.1-3,6.39,5.23,2.03,8.42-4.74,3-6.39Z"/>
  </g>
</svg>