<?xml version="1.0" encoding="utf-8"?>
<!-- Generator: Adobe Illustrator 27.4.0, SVG Export Plug-In . SVG Version: 6.00 Build 0)  -->
<svg version="1.1" id="Calque_1" xmlns="http://www.w3.org/2000/svg" xmlns:xlink="http://www.w3.org/1999/xlink" x="0px" y="0px"
	 viewBox="0 0 138.7 136" style="enable-background:new 0 0 138.7 136;" xml:space="preserve">
<style type="text/css">
	.st0{fill:#616160;stroke:#1D1D1B;stroke-miterlimit:10;}
	.st1{fill:#FFFFFF;stroke:#1D1D1B;stroke-miterlimit:10;}
</style>
<path class="st0" d="M10.8,131.6c6.7-31,9.2-49.4,45.7-51.5c2.6-1.3,6.6-5.7,8.3-8.1c2.4-2.3,3.1-2.8,6.4-2.5
	c4.6,1.3,20.4-18.6,24.3-22.2c4.1-8.2,5.1-3.6,11.5-6.4c1.6-1.7,1.7-3.8,1.5-6c0.2-2-0.7-16.6,1-17.9c0.6-1,13.7-6.2,15-6.8
	c0.7-0.1,2.4-1.4,3-0.6c2.1,2,5.1,7.1,5.8,9.9c0.1,1.3-0.2,3.2-1.1,4.3c-0.9,0.8-3.6,4.7-4.7,5c-0.7-3.4,0.5-9.7-3.4-11.3
	c-4.3-0.2-9.5,3.5-12.3,6.5l3.4-0.5c-0.1,3.1,0.1,15.3,0.2,18.7c-0.5,1.9-2.7,3.1-4.3,3.9c-4.4,0.8-5.4,0.8-8.5,4.5
	c-1.8,2-5.4,6-6.8,8.3c-0.2,1.6,2,1.1,3,1.6c-0.5,5.6-6.7,2.2-10,3.7c-3.4,2.3-6.9,7-9.9,9.7c-1.2,1.6,0.4,4.4,1.2,5.9
	c0.9,3.1-10.4,10.8-10.7,15.6c-2,9.9-4.5,16.1-13.1,21.9c-5.9,2.7-13.3,2.6-19.4,3.9C28.4,123.8,20,130.8,10.8,131.6L10.8,131.6z"/>
<path class="st1" d="M59,78.4l-2.3,1.7c0,1,0.4,2.4,0.9,3.3C37.9,89.2,30,91,21.8,111.3c11.4-19,16.9-19.8,37.1-26.3
	c1,1.6,3.7,4.2,5.1,5.4c-1,1.9-1.6,3.5-2.1,4.6c-1.2,2.9-1.8,4.3-2,5.4c-0.3,1.1-0.5,2.2-1.4,3.6c-0.4,0.7-0.9,1.1-1.2,1.5
	c-0.9,0.8-1.7,1.6-2.6,2.4c-0.6,0.6-1.4,1.3-2.5,1.9c-0.6,0.4-1.2,0.6-1.7,0.8c-3.9,1.7-7.8,3.4-11.7,5.1c3.4-0.3,8.6-1.3,13.8-4.4
	c3.7-2.2,8.7-5.2,9.7-9.9c0.2-1,0.4-2.6,1.2-5.2c0.6-2.1,1.4-3.8,1.9-5c1.2,0.8,3.6,1.8,5,1.9l1.4-2c-1.9,0-6-2.7-7.5-3.6
	C62.2,85.3,58.3,81.8,59,78.4L59,78.4z"/>
<path class="st1" d="M55.5,92l-9.1,4.6l-7.4,4.7c0,0-4.1,4-4.2,4.3s-4.3,5.2-4.4,5.6s-4.8,5.2-4.8,5.2l-6.8,6.2l8.8-5.3l8.5-9.2
	l5.8-5.8L55.5,92L55.5,92z"/>
<path class="st1" d="M62.6,74.8l-1.8,1.9c1.9,3.5,6,7.1,9.9,8.2C68.4,82.9,63.1,78.1,62.6,74.8L62.6,74.8z"/>
<path class="st1" d="M64.9,72.1c0.8,1.7,2.5,4.6,5.5,7.2c3,2.6,6,3.8,7.8,4.4c0.5-0.7,1-1.4,1.5-2.1c-0.9-0.2-2-0.5-3.3-1.1
	c-0.5-0.2-2.2-1-4.1-2.6c-0.9-0.8-2.5-2.2-3.9-4.4c-0.8-1.2-1.3-2.2-1.6-3C66.2,71,65.5,71.6,64.9,72.1L64.9,72.1z"/>
<path class="st1" d="M71.6,69.6c-0.1,4.4,2.7,7.5,7,7.4l0.2-0.2c-0.2-0.6-0.2-1.8,0-2.4c-3.3,1.2-5.6-3.9-4.5-5.8
	C73.6,69,72.5,69.5,71.6,69.6L71.6,69.6z"/>
</svg>
