<?xml version="1.0" encoding="utf-8"?>
<!-- Generator: Adobe Illustrator 27.4.0, SVG Export Plug-In . SVG Version: 6.00 Build 0)  -->
<svg version="1.1" id="Calque_1" xmlns="http://www.w3.org/2000/svg" xmlns:xlink="http://www.w3.org/1999/xlink" x="0px" y="0px"
	 viewBox="0 0 146 131" style="enable-background:new 0 0 146 131;" xml:space="preserve">
<style type="text/css">
	.st0{fill:#616160;stroke:#1D1D1B;stroke-miterlimit:10;}
	.st1{fill:#FFFFFF;stroke:#1D1D1B;stroke-miterlimit:10;}
</style>
<g>
	<path class="st0" d="M12.9,24.2c2,32.3,4.1,64.5,6.1,96.8c0,0.3,0,1,0.6,1.7c0.4,0.5,0.9,0.7,1.2,0.9c0.9,0.4,1.8,0.4,2.3,0.3
		l64.3-4.1c0.3,0,1.2-0.1,1.8-0.7c0.3-0.3,0.4-0.7,0.5-1c0.2-0.7,0.2-1.2,0.2-1.6c-1.9-32.2-3.8-64.4-5.7-96.6
		c-0.1-0.3-0.2-0.9-0.7-1.5c-0.4-0.4-0.8-0.6-1.2-0.8c-0.3-0.2-1-0.4-1.8-0.4l-64.9,4.2c-0.4,0.1-1.1,0.4-1.7,0.9
		c-0.2,0.2-0.6,0.5-0.8,1C13,23.7,13,24,12.9,24.2L12.9,24.2z"/>
	<path class="st1" d="M24,71.9c13.8-19.7,38.9-22.2,54.7-3.2C67.4,89.5,38.2,89.8,24,71.9z"/>
	<path class="st0" d="M40.8,60.3c-13.8,17.2,10,34,23.4,19C74.3,63.1,53.9,47.4,40.8,60.3z"/>
	<path class="st1" d="M50.3,66.7c-4.9,2.9-1.1,9.9,3.6,7.2C58.5,71.4,54.8,64.3,50.3,66.7z"/>
	<path class="st1" d="M21.1,51c-0.2,0.3,0.5,1.3,4.1,4.6c2.2,1.2,5,2.6,5.3,2.2c0.1-0.2,0-0.9-3.3-4C22.6,51.1,21.3,50.7,21.1,51
		L21.1,51z"/>
	<path class="st1" d="M20,32.1c-0.3,0.3,2.2,4,7.5,11.2c6.3,7,9.6,10.3,9.9,10.1c0.4-0.3-2.2-4.1-7.6-11.5
		C23.6,35.1,20.4,31.9,20,32.1z"/>
	<path class="st1" d="M32.9,26c-0.4,0.2,1.1,4.6,4.5,13.2c3.9,8.1,6.1,12,6.5,11.9c0.4-0.2-1-4.3-4-12.5C35.6,30,33.3,25.8,32.9,26
		L32.9,26z"/>
	<path class="st1" d="M48.9,25c-0.5,0-0.8,4.5-0.9,13.4c1.1,7.5,1.9,11.3,2.4,11.2c0.5,0,0.8-3.6,0.8-10.7
		C50.3,29.7,49.5,25,48.9,25z"/>
	<path class="st1" d="M57.1,49.7c-0.4-0.1,0.1-3.4,2.3-12.3c3-8.7,4.6-12.4,5-12.3c0.4,0.1-0.2,4.3-2.3,13.4
		C58.9,46.9,57.5,49.8,57.1,49.7L57.1,49.7z"/>
	<path class="st1" d="M63.9,51c-0.4-0.3,1-3.5,5.5-11.4c6.3-9.1,8.8-12.1,9.2-11.9c0.4,0.3-1.1,3.8-6.1,13.4
		C66.8,48.6,64.3,51.3,63.9,51L63.9,51z"/>
	<path class="st1" d="M71.3,55.5c-0.7-0.7,2.9-5.2,3.3-5.8c2.8-2,5.1-3.2,5.6-2.7s-0.9,2.7-3.1,5.3C76.4,52.8,72,56.2,71.3,55.5
		L71.3,55.5z"/>
	<path class="st1" d="M73.2,83.2c0.5-0.8,5.2,1.7,5.5,1.8c0.5,0.4,4.4,4,3.9,4.8s-5.2-1.8-5.8-2.1C76.6,87.6,72.6,84,73.2,83.2z"/>
	<path class="st1" d="M66.9,87.9c0.3-0.3,3.6,3.2,9.8,10.3c5.4,7.2,7.9,11,7.6,11.2c-0.3,0.3-3.8-3.3-10.4-10.8
		C68.9,91.7,66.6,88.1,66.9,87.9L66.9,87.9z"/>
	<path class="st1" d="M59.6,89.8c-0.5,0.2,0.8,4.5,3.7,12.9c4.3,8.5,6.7,12.6,7.2,12.4c0.5-0.2-0.7-4.4-3.7-12.6
		C62.6,93.8,60.2,89.6,59.6,89.8L59.6,89.8z"/>
	<path class="st1" d="M52.9,91.1c-0.6,0.1-0.9,4.1-0.9,12.3c1.1,8.3,1.9,12.4,2.6,12.4c0.6,0,1.1-3.9,1.4-11.5
		C54.6,95.5,53.6,91.1,52.9,91.1L52.9,91.1z"/>
	<path class="st1" d="M46.2,91.1c-0.4-0.1-1.8,3.1-5,12.3c-2.6,9.9-3.2,13.2-2.8,13.4c0.4,0.1,1.9-2.9,5.5-12.4
		C46.1,94.8,46.6,91.2,46.2,91.1L46.2,91.1z"/>
	<path class="st1" d="M24.8,112.8c-0.5-0.3,1.6-5,6.4-14.1c5.7-7.6,8-10,8.4-9.7s-0.9,3.4-5.7,11.9
		C28.3,109.1,25.3,113.1,24.8,112.8L24.8,112.8z"/>
	<path class="st1" d="M23.2,93.6c-0.5-0.6,2.5-3.7,3.4-4.6c2-1.6,5.8-4.4,6.3-3.8s-2.5,4.1-4.2,6C27.7,91.7,23.7,94.2,23.2,93.6z"/>
</g>
<g>
	<path class="st0" d="M64.5,15.8V9.7c0.1-0.4,0.2-0.9,0.6-1.4c0.1-0.2,0.3-0.5,0.7-0.8S66.6,7,66.9,7l65.5,3.2
		c0.6,0,1.9,0.2,2.4,1.1c0.1,0.2,0.1,0.4,0.2,0.5c0.1,0.6,0.3,1.7,0.2,3.3l-4.1,94.3c0,0.4-0.1,0.9-0.5,1.5
		c-0.1,0.1-0.3,0.4-0.5,0.6c-0.5,0.4-1.1,0.5-1.6,0.6c-1.6,0.2-3.4,0.1-4,0.1l-32.4-1.4l-5.8-91.5c-0.1-0.6-0.4-1.7-1.4-2.8
		c-0.2-0.2-1-1-2.3-1.6c-1.6-0.6-3.1-0.4-3.8-0.3c-2.3,0.3-5.3,0.5-9.1,0.8C68,15.5,66.3,15.6,64.5,15.8L64.5,15.8z"/>
	<path class="st1" d="M96.3,104.7H114c-0.1-0.5-0.1-1.3,0-2.2c0.2-1.5,0.9-2.5,1.2-3c0.9-1.4,2-2.1,2.7-2.6c0.4-0.3,1.2-0.7,2.2-1.1
		c1.4-0.5,2.6-0.6,3.1-0.6s0.9,0,1.2,0l3.1-67.4c-1.7-0.2-2.8-0.8-3.5-1.3c-0.9-0.6-1.5-0.9-2.4-1.9c-0.9-0.9-1.5-1.6-2.1-2.8
		c-0.9-1.4-1.1-2.9-1.2-3.4c-0.2-0.8-0.2-1.4-0.3-1.9l-29.6-2.3c10.3,0.1,20.5,0.2,30.8,0.4h1.3c0,0.3-0.1,0.8-0.1,1.4
		c0,1,0,1.8,0.3,2.7c0.3,1.1,0.9,2.1,1.5,2.9c0.2,0.3,0.9,1.2,2.3,2.2c0.8,0.5,1.7,0.9,3,1.2c1.1,0.2,2,0.1,2.6,0.1
		c0,0.3,0,0.6,0,0.8c-1.1,23.7-2.2,47.5-3.4,71.2c-0.4-0.1-1-0.1-1.6-0.1c-0.3,0-1.3,0-2.7,0.2c-1.1,0.2-1.7,0.3-2.4,0.6
		c-1.5,0.7-2.4,1.7-2.7,2.1c-0.3,0.4-1.2,1.5-1.5,3.2c-0.2,1.5,0.1,2.7,0.3,3.2c0.1,0.3,0.2,0.6,0.3,0.8
		C109.7,106.4,103,105.5,96.3,104.7L96.3,104.7z"/>
	<path class="st1" d="M87.6,38.5c8-5.2,20-4,27.7,1.4c3.2,2.2,5.2,4.7,5.5,6.7c0.6,4.6-4.4,1.3-7.3,1.3c-7.1-0.1-12.5,3.6-14,10.4
		c-0.6,2.7-0.3,6.2,0.8,8c2.4,4,6,6.7,10.7,6.9c1.9,0.1,3.9-0.4,5.6-0.8c2.2-0.5,4.2,2.3,2.6,3.9c-7.3,7.5-19,11.2-28.8,6.8
		l-0.2-2.9c7.4,4.6,17.8,2.6,24.5-2.5c1-0.7,3-1.7,2.6-3.1c-0.3-1.1-0.8,0-4.2,0.3h-3.3c-0.1,0-0.7-0.1-0.8-0.1
		c-5.2-0.8-10.7-6-11.7-12.1c-1-7.2,2.8-13.4,9.4-16.1c3.7-0.9,8.3-0.8,11.9,0.5c0-0.4-0.3-1.1-0.5-1.5c-1.3-2.7-6.4-5.7-8.9-6.8
		c-7.1-3.1-15-1.9-21.5,1.9L87.6,38.5L87.6,38.5z"/>
</g>
</svg>
