<?xml version="1.0" encoding="utf-8"?>
<!-- Generator: Adobe Illustrator 27.4.0, SVG Export Plug-In . SVG Version: 6.00 Build 0)  -->
<svg version="1.1" id="Calque_1" xmlns="http://www.w3.org/2000/svg" xmlns:xlink="http://www.w3.org/1999/xlink" x="0px" y="0px"
	 viewBox="0 0 439.5 308" style="enable-background:new 0 0 439.5 308;" xml:space="preserve">
<style type="text/css">
	.st0{fill:#616160;stroke:#1D1D1B;stroke-miterlimit:10;}
	.st1{fill:#FFFFFF;stroke:#1D1D1B;stroke-miterlimit:10;}
</style>
<g>
	<g>
		<path class="st0" d="M352.1,110.3c-25.6,33.9-27.3,27.3-66.6,25c-38.9-2.1-79.3,23.9-83.7,64.5c-3.9,89.3,120.1,124.2,155.9,38.9
			c9.4-24.4-1.2-53.3-0.8-78.4c4-9.6,13.9-17.7,21.6-24.3c3.5,2.3,11.4,5.2,15.4,6c2.9,2.7,19.8-19.1,21.8-20.2
			c1.5-4.2-2.9-13.9-4.6-17.5l23.1-10.8c1.5-11.6-9.4-24.8-17.7-31.8c-24.3-17.3-24.8-7.3-33.3,14.8c-4.2-2.7-12.7-6-17.9-5.2
			c-3.1,3.1-17.3,14.8-19.1,18.1C343.4,94.3,351.7,107.6,352.1,110.3L352.1,110.3z"/>
		<path class="st1" d="M250.1,157.3c16.9-9.4,40.2-8.7,58.5-3.5C293.8,152.8,264.5,154.8,250.1,157.3z"/>
		<path class="st1" d="M327.1,150.1c8.3-4.2,14.6-15,23.1-19.1C346.1,140.3,338.8,152.8,327.1,150.1z"/>
		<path class="st1" d="M213.7,169.8c19.8-3.3,43.5,0,63.5,2.5c7.9-6.9,19.1-6.5,22.5,4.6c12.5,2.3,25.4,5.2,38.9,8.5
			c7.1,1.7,13.9,3.5,20.6,5.4c0.4,1.3,1.3,4.6,1.3,6c-8.5-4-52.2-13.9-61.4-16.9l-1.9,5.4c-0.6-5.6-1.9-14.1-9.2-13.9
			c-9.2-0.2-10.6,7.5-10,14.8c-1.7-2.5-3.1-7.9-2.9-11c-9-1.7-20.2-3.3-32.9-3.5c-12.5-0.2-23.5,1.2-32.5,2.7c0.4-0.8,1-1.9,1.9-3.1
			C212.1,170.9,213.1,170.2,213.7,169.8L213.7,169.8z"/>
		<path class="st1" d="M242,191.1c-0.6-16.9,23.9-15.2,20,2.3C258.5,182.5,247.5,180.6,242,191.1z"/>
		<path class="st1" d="M311.7,202.7c-0.2-1.2-0.6-4.8,1.5-7.5c3.9-4.6,14.2-3.7,16.7,1.7c1,1.9,1,4.6-0.2,7.7
			c-1.5-4-4.6-6.9-8.3-7.1c-2.5-0.2-4.6,1-5,1.2c-3.3,1.9-4,5.2-4.2,5.8C312,203.8,311.8,203.3,311.7,202.7L311.7,202.7z"/>
		<path class="st1" d="M206.2,182.3c6.7,11.2,24.1,18.1,35.8,22.3c19.6,7.3,44.7,9.6,65.5,10.2c17.1-1.3,39.5,1.3,53.9-9.6l-0.6-6.2
			c-19.3,16-64.9,11.2-88.8,8.1c-13.9-1.5-33.5-6.2-45.4-13.3c-7.9-3.7-14.1-7.9-18.5-15.6L206.2,182.3z"/>
		<path class="st1" d="M322.8,242.9c-0.2,0.8-1.2,4.4,0.8,7.3c0.4,0.6,1.2,1.7,2.7,2.1c1.5,0.2,2.7-0.6,3.9-1.5
			c1-0.8,2.5-2.1,3.9-4.2c0,1.7-0.2,4.6-2.1,7.1c-0.4,0.6-0.8,0.8-1,1c-2.3,2.1-6.5,3.1-8.7,1.9C319.7,254.7,319,248.7,322.8,242.9
			L322.8,242.9z"/>
		<path class="st1" d="M352.1,110.3c6.7,8.5,17.3,19.6,26.4,25.6l-2.1,1.9c-3.5-1.2-10.2-6.9-12.9-9.2c-4.2-3.9-11.2-10.2-13.3-15.8
			L352.1,110.3L352.1,110.3z"/>
		<path class="st1" d="M361.3,74.9c-1,17.7,21.2,37.3,35.2,46c3.9,2.5,10.2,5.4,14.8,5.6l0,0c0,0,1-1.3,3.1-3.7
			c-6.4-1.7-17.3-6-27.9-15.2c-14.8-13.1-20.2-28.7-22.1-35.4C363.4,73.1,362.3,73.9,361.3,74.9L361.3,74.9z"/>
		<path class="st1" d="M380.2,74.9c-0.4,2.9-1,9.2,2.3,16.2c0.4,0.8,2.1,4.4,6,8.1c5.6,5.6,11.7,7.5,15.2,8.3
			c3.9,0.8,7.1,0.8,9.2,0.8l-1.9-4.2c-2.5,0-7.3-0.4-12.5-3.1c-5.6-2.9-8.9-6.9-10.2-8.9c-1.2-1.5-2.7-4.2-3.9-7.5
			c-1.2-3.5-1.3-6.4-1.3-8.3L380.2,74.9L380.2,74.9z"/>
		<path class="st1" d="M389.2,61.2c0.8,2.9,3.1,9.2,4.8,11.9c1.7,2.7,6.4,8.1,8.9,10.4c2.7,2.3,5,4.2,9.8,8.1
			c2.3,1.9,3.9,2.9,6.2,3.9c2.5,1.2,4.8,1.7,6.5,1.9l6-2.7c-1.9-0.6-4.4-1.5-7.5-2.9c-2.3-1.2-5.4-2.5-8.7-4.8
			c-2.3-1.5-5.4-4-8.7-7.5c-5.6-6.5-12.7-14.4-13.5-23.3L389.2,61.2z"/>
	</g>
	<g>
		<path class="st0" d="M216.6,54.8c5,0,14.1,1.5,17.9,5c1,4.2,6.9,21.8,6.7,25.4C241,90.8,226.8,98,225,99.9
			c4,42.4,8.9,37.7,43.7,56.2c34.3,18.7,55.1,62,37.3,98.8c-43.5,78.2-167.5,42.5-153.2-48.7c4.8-25.8,28.9-44.7,41.8-66.4
			c1.7-10.4-2.5-22.3-5.6-32c-4.2,0-12.3-1.5-16.2-3.1c-3.9,0.8-6.9-26.6-7.9-28.5c1-4.4,9.8-10.2,13.3-12.5"/>
		<path class="st1" d="M287.4,193.6c-9.4-16.9-29.6-28.5-47.9-33.7C252.6,166.9,276.4,183.8,287.4,193.6z"/>
		<path class="st1" d="M225.6,147.1c-4.6-7.9-4.6-20.4-9.6-28.3C214.4,128.8,214.2,143.2,225.6,147.1z"/>
		<path class="st1" d="M308.6,210.6c-17.5-9.8-41-14.6-60.6-19.1c-5.2-9.2-15.8-12.7-22.7-3.3c-12.5-1.9-25.8-3.7-39.5-5.2
			c-7.3-0.8-14.2-1.3-21.2-1.9c-0.8,1.2-2.9,3.9-3.3,5.2c9.2-0.8,53.7,4.6,63.5,5v5.8c2.5-5,6.5-12.5,13.5-9.8
			c8.7,3.1,7.3,10.6,4.2,17.3c2.3-1.9,5.6-6.4,6.4-9.2c9,1.3,20,3.7,32.2,7.9c11.9,4.2,21.8,9,29.6,13.7c0-1-0.2-2.1-0.8-3.5
			C309.5,212.3,309,211.4,308.6,210.6L308.6,210.6z"/>
		<path class="st1" d="M278.5,218.7c3.7-16.4-20.8-19.1-20-1.3C263.7,207.3,274.9,207.3,278.5,218.7z"/>
		<path class="st1" d="M209,203.3c0.2-1.2,0.6-4.8-1.5-7.3c-3.9-4.6-14.2-3.7-16.7,1.7c-1,1.9-1,4.6,0.2,7.7c1.5-4,4.8-6.9,8.3-7.1
			c2.5-0.2,4.6,1,5,1.2c3.3,1.9,4,5.2,4.2,5.8C208.7,204.4,208.9,203.8,209,203.3z"/>
		<path class="st1" d="M310.7,218.9c-9.6,9-28.1,11-40.6,11.7c-21,1.5-45.6-2.9-65.6-7.9c-16-5.8-38.5-9.4-49.3-23.9l2.3-5.8
			c14.2,20.8,59.5,28.3,83.2,31.8c13.7,2.3,33.9,3.3,47.4-0.4c8.7-1.5,15.8-3.9,22.1-10L310.7,218.9L310.7,218.9z"/>
		<path class="st1" d="M274.1,248.9c14.2,15-14.2,24.4-7.9,4.6c-9.2,8.3-0.8,18.5,9.8,14.2C283.9,263.1,283.9,250.8,274.1,248.9z"/>
		<path class="st1" d="M226.2,260.1c13.9,13.5-4.8,24.6-10.6,6.4C216.9,296.1,252,271.2,226.2,260.1z"/>
		<path class="st1" d="M225.2,100.1c-10.2,3.9-25.2,7.7-36,7.9l1,2.7c3.5,1,12.3-0.6,15.8-1.2c5.8-1.2,14.8-2.9,19.4-6.4
			L225.2,100.1L225.2,100.1z"/>
		<path class="st1" d="M236,65c-8.5,15.6-37.7,20.8-54.1,20.6c-4.6,0-11.6-0.8-15.6-3.1l0,0l0,0c0,0-0.2-1.5-0.8-4.6
			c6.4,1.7,17.9,4,31.8,1.7c19.4-3.3,32.3-13.9,37.3-18.5C235.2,62.5,235.6,63.7,236,65z"/>
		<path class="st1" d="M220,55.2c-1.2,2.7-4,8.5-10.6,12.5c-0.8,0.4-4.2,2.7-9.2,3.9c-7.7,1.7-14.1,0.2-17.3-1
			c-3.7-1.3-6.5-2.9-8.3-4.2l3.9-2.5c2.1,1.3,6.4,3.5,12.3,4c6.2,0.6,11.2-1.3,13.3-2.3c1.9-0.8,4.4-2.1,7.1-4.4
			c2.7-2.3,4.4-4.6,5.6-6.4L220,55.2L220,55.2z"/>
	</g>
	<g>
		<path class="st0" d="M90.6,121.6c25.6,33.9,27.3,27.3,66.6,25c38.9-2.1,79.3,23.9,83.7,64.5c3.9,89.3-120.1,124.2-155.9,38.9
			c-9.4-24.4,1.2-53.3,0.8-78.4c-4-9.6-13.9-17.7-21.6-24.3c-3.5,2.3-11.4,5.2-15.4,6c-2.9,2.7-19.8-19.1-21.8-20
			c-1.5-4.2,3.1-13.9,4.6-17.7L8.6,104.9c-1.5-11.6,9.4-24.8,17.7-31.8C50.6,55.8,51.2,65.8,59.7,88c4.2-2.7,12.7-6,17.9-5.2
			c3.1,3.1,17.3,14.8,19.1,18.1C99.5,105.7,91,118.9,90.6,121.6L90.6,121.6z"/>
		<path class="st1" d="M192.9,168.6c-16.9-9.4-40.2-8.7-58.5-3.5C149.2,164.2,178.2,165.9,192.9,168.6z"/>
		<path class="st1" d="M115.7,161.5c-8.3-4.2-14.6-15-23.1-19.1C96.6,151.7,104.1,164,115.7,161.5z"/>
		<path class="st1" d="M229.1,181.1c-19.8-3.3-43.5,0-63.5,2.7c-7.9-6.9-19.1-6.5-22.5,4.6c-12.5,2.3-25.4,5.2-38.9,8.5
			c-7.1,1.7-13.9,3.5-20.6,5.4c-0.4,1.3-1.3,4.6-1.3,6c8.5-4,52.2-13.9,61.4-16.9l1.9,5.4c0.6-5.6,1.9-14.1,9.2-13.9
			c9.2-0.2,10.6,7.5,10,14.8c1.7-2.5,3.1-7.9,2.9-11c9-1.7,20.2-3.3,32.9-3.5c12.5-0.2,23.5,1.2,32.5,2.7c-0.4-0.8-1-1.9-1.9-3.1
			C230.6,182.3,229.8,181.5,229.1,181.1L229.1,181.1z"/>
		<path class="st1" d="M201,202.5c0.6-16.9-23.9-15.2-20,2.3C184.4,193.8,195.2,191.7,201,202.5z"/>
		<path class="st1" d="M131.3,214c0.2-1.2,0.6-4.8-1.5-7.5c-3.9-4.6-14.2-3.7-16.7,1.7c-1,1.9-1,4.6,0.2,7.7c1.5-4,4.6-6.9,8.3-7.1
			c2.5-0.2,4.6,1,5,1.2c3.3,1.9,4,5.2,4.2,5.8C130.9,215.2,131.1,214.6,131.3,214L131.3,214z"/>
		<path class="st1" d="M236.8,193.5c-6.7,11.2-24.1,18.1-35.8,22.3c-19.6,7.3-44.7,9.6-65.5,10.2c-17.1-1.3-39.5,1.3-53.9-9.6
			l0.6-6.2c19.3,16,64.9,11.2,88.8,8.1c13.9-1.5,33.5-6.2,45.4-13.3c7.9-3.7,14.1-7.9,18.5-15.6L236.8,193.5z"/>
		<path class="st1" d="M206.5,227.7c20,5.2,0.6,28.3-4.2,8.1c-3.5,11.9,9.2,16.2,16,6.9C222.3,234.6,216,224.3,206.5,227.7
			L206.5,227.7z"/>
		<path class="st1" d="M165.3,264.3c18.9,4.2,8.9,23.5-5.8,11C176.3,299.7,193.3,260.3,165.3,264.3z"/>
		<path class="st1" d="M115.1,240.8c10.2,5.8,2.9,18.7-6.9,11.6C117.2,271.6,136.7,241.8,115.1,240.8z"/>
		<path class="st1" d="M90.6,121.6c-6.7,8.5-17.3,19.6-26.4,25.6l2.1,1.9c3.5-1.2,10.2-6.9,12.9-9.2c4.2-3.9,11.2-10.2,13.3-15.8
			L90.6,121.6L90.6,121.6z"/>
		<path class="st1" d="M81.6,86.2c1,17.7-21.2,37.3-35.2,46c-3.9,2.5-10.2,5.4-14.8,5.6l0,0c0,0-1.2-1.2-3.1-3.7
			c6.4-1.7,17.3-6,27.9-15.2c14.8-13.1,20.2-28.7,22.1-35.4C79.5,84.3,80.4,85.3,81.6,86.2z"/>
		<path class="st1" d="M62.7,86.2c0.4,2.9,1,9.2-2.3,16.2c-0.4,0.8-2.1,4.4-6,8.1c-5.6,5.6-11.7,7.5-15.2,8.3
			c-3.9,0.8-7.1,0.8-9.2,0.8l1.9-4.2c2.5,0,7.3-0.4,12.5-3.1c5.6-2.9,8.9-6.9,10.2-8.9c1.2-1.5,2.7-4.2,3.9-7.5
			c1.2-3.5,1.3-6.4,1.3-8.3L62.7,86.2L62.7,86.2z"/>
		<path class="st1" d="M53.5,72.6c-0.8,2.9-3.1,9.2-4.8,11.9c-1.7,2.7-6.4,8.1-8.9,10.4c-2.7,2.3-5,4.2-9.8,8.1
			c-2.3,1.9-3.9,2.9-6.2,3.9c-2.5,1.2-4.8,1.7-6.5,1.9l-6-2.7c1.9-0.6,4.4-1.5,7.5-2.9c2.3-1.2,5.4-2.5,8.7-4.8
			c2.3-1.5,5.4-4,8.7-7.5c5.6-6.5,12.7-14.4,13.3-23.3L53.5,72.6L53.5,72.6z"/>
	</g>
</g>
<path class="st0" d="M174.2,67.7c-1.3-1.7-1.5-3.5-1.7-5.2c-0.4-2.3-1.5-5.8-4.2-9.8c0.2-0.6,0.4-1.3,0.6-2.5
	c0.2-1.2,0.8-2.9,0.8-2.9s-0.4-0.8,1-8.5l0,0c-1-1.3-2.7-4.2-2.7-8.3c0-3.3,1.2-5.8,1.9-7.1c1.3-2.7,3.1-4.4,4.8-6
	c2.3-2.3,4.4-3.5,7.1-5c1.9-1.2,4-2.3,7.1-3.5c4.2-1.5,7.9-1.9,9.2-2.1c3.1-0.4,5.6-0.2,6.9,0c2.3,0.2,4.4,0.6,6,1.2
	c1.3,0.6,3.3,1.5,5.4,2.7c2.1,1.3,4.8,2.9,7.3,5.8c1.7,1.9,2.7,3.7,3.9,6.2c1.2,2.3,2.9,5.6,3.9,10.2c0.4,1.9,1,4.2,0.8,7.3
	c0,1.7-0.2,5.6-2.5,9.8c-0.8,1.5-1.7,2.7-2.3,3.5l-7.1-1.3c0.8,0.6,2.1,1.5,3.1,3.3c0.8,1.3,1.5,2.3,1.3,3.5
	c-0.4,1.7-2.3,2.7-3.3,3.1c-2.3,1.2-3.1,0.2-6,1c-3.5,0.8-5.6,2.9-6.4,3.7c-1.5,1.5-2.5,3.1-3.1,4.2c-1,1.3-1.9,2.9-2.9,4.2
	c-1.2,0.6-3.9,1.7-6.5,1.5c-2.3-0.2-3.3-1-3.5-1.2c-0.4-0.4-0.8-0.8-1-1.2l0.6-5.2l-3.5,4.6l-6.7-1.3l0.2-7.5l-3.5,5.2
	C177.5,70,175.5,69.3,174.2,67.7L174.2,67.7z"/>
<path class="st1" d="M185.2,51.4c-0.4,1.9-4.6,8.3-1.9,9.8l3.5-1.2c0.8-2.5,1.5-7.1,0-9.4L185.2,51.4L185.2,51.4z"/>
<path class="st1" d="M195,38.7c-3.5,1.5-4.4,6.4-4.6,9.8c-0.2,9,11.7,10.6,17.9,6.5C218.7,45.4,204.8,35,195,38.7z"/>
<path class="st0" d="M198.1,41.7c-6,2.5-3.5,11.7,3.1,11.2C213.3,52,207.3,41,198.1,41.7z"/>
<path class="st1" d="M170.4,38.9c4.2-3.7,12.1-2.5,13.7,3.3c-1.2,3.1-1.3,8.5-4.4,10.4c-3.1,1.2-6.9,0.2-9.8-1.3
	c-1-1.3-1-1.9-0.4-3.3L170.4,38.9L170.4,38.9z"/>
<path class="st0" d="M174.2,40c-3.1,2.7-4,9.6,1.5,9.6C182.1,47.7,181.7,38.9,174.2,40z"/>
<path class="st1" d="M177.9,27.3c1-5.8,8.9-13.5,14.4-8.9c-5.2,1.9-11.6,5.6-14.4,10.6V27.3L177.9,27.3z"/>
<path class="st1" d="M202.1,17.3c6.9,4,14.8,9.8,19.1,16.9C224.4,25.4,210.4,13.6,202.1,17.3z"/>
</svg>
