<?xml version="1.0" encoding="UTF-8"?>
<svg id="Calque_1" data-name="Calque 1" xmlns="http://www.w3.org/2000/svg" viewBox="0 0 802.03 552.11">
  <defs>
    <style>
      .cls-1 {
        fill: #54544f;
      }

      .cls-1, .cls-2, .cls-3, .cls-4, .cls-5, .cls-6, .cls-7, .cls-8, .cls-9 {
        stroke-miterlimit: 10;
      }

      .cls-1, .cls-2, .cls-3, .cls-5, .cls-6, .cls-8, .cls-9 {
        stroke: #000;
      }

      .cls-2 {
        fill: none;
      }

      .cls-4, .cls-6 {
        fill: #3f3f3f;
      }

      .cls-4, .cls-7 {
        stroke: #1d1d1b;
      }

      .cls-5 {
        fill: #545454;
      }

      .cls-7 {
        fill: #1d1d1b;
      }

      .cls-8 {
        fill: #2b2b2b;
      }

      .cls-9 {
        fill: #515151;
      }
    </style>
  </defs>
  <g>
    <path d="m287.73,156.27c16.31-2.32,44.07-1.89,61.15-4.97,14.53-2.28,21.9-3.23,26.72-6.17-1.58.97,17.42-10.16,25.98-7.94,22.67,13.9,46.25,17.37,59.93,17.01.3,1.11,40.22-1.8,43.29,2.81-.55,6.7-2.92,35.76-1,41.9,0,0,.97,4.8-.47,10.39-.48,1.85-1,2.91-1.98,3.52-2.43,1.5-5.88-.89-6.41-.04-.44.7,1.81,2.42,4.38,6.37,2.07,3.16,5.09,10.61,4.7,14.36,1.62,14.74.81,39.35-10.23,48.54-22.18,8.53-20.53,10.5-25.48,34.63-3.84,24.49,5.93,37.02.93,58.54-5.3,11.13-7.62,23.94-6.79,34.2,1.59,8.93-4.39,5.51-3.21,10.99.06,4.25-10.48,9.94-10.5,11.5-.84,1.66-.47,2.57-.52,6.49-.03,2.3-.17,2.69-1.13,11.03-2.7,23.42-1.78,21.57-3.01,27.12,0,0-.94,4.28-4.66,25.4-.27.36.09,2.91.46,3.26,1.34,2.9,5.06,8.03,5.64,10.91.83,5.99.87,12.55-.05,15.47-2.92,13.22-25.08,23.29-28.59,18.94-1.17-2.61-4.88-2.43-7.25-1.83-17.33-.66-2.2-30.65-10.79-32.98-4.2,2.1-1.96,7.8-3.21,11.25-.77,2.18-1.58,1.98-2.29,4.25-1.46,5.68,2.29,12.29-2.82,17.63-1.41,1.13-3.29,1.1-7.04,1.03-7-.66-9.51-.88-19.76-6.89-.72-.39-5.11-2.76-4.73-4.12.07-.24.3-.49.68-1.42.4-.96.34-1.18.29-1.29-.83-1.12-2.12-.26-2.85-.32-.74-.13-1.12-1.2-1.27-1.59-.96-2.54-1.71-2.22-2.89-5.26-1.71-4.41-1.49-8.6-1.36-10.04,4.1-20.82,12.56-14.57,2.16-37.15-2.59-11.34-2.49-20.44-2.9-37.25-.59-4.12-.06-8.21-.8-12.24-.82-1.72-2.44-2.13-4.87-3.61-10.63-5.34-5.55-13.2-10.76-27.78-4.13-9.48-10.98-20.36-11.28-28.05-1.65-34.53,11.1-36.89.59-69.43-.91-2.23-2.42-2.92-3.58-3.32-9.48-3.88-20.14-9.67-21.3-21.1-2.61-11.68.67-23.29-3.98-29.08-1.33-1.99-2.83-6.88-1.89-9.79,1.91-13,1.52-16.32,4.18-20.85,1.48-1.31,5.43-3.22,4.85-6.32-.38-1.19-1.8-1.91-2.28-2.11-4.23-1.82-5.72-13.79-6.42-30.39-.74-17.36-4.69-12.1-4.66-13.26.78-7.38,4.24-8.12-.91-10.91Z"/>
    <path d="m302.25,213.37c17.47-9.05,48-41.19,54.64-53.65,2.26-4.24,6.31-10.7-.23-9.65-44.37,7.14-66.41,1.7-67.88,9.3-1.24,6.39,2.76,50.96,13.48,53.99Z"/>
    <path d="m496.66,212.83c-8.87-5.4-24.56-18.27-30.42-26.87-1.38-2.78-9.84-31.75-13.6-32.02,13.61.97,40.21-1.33,53.2,2.11-2.49,7.13,5.43,61.2-9.18,56.78Z"/>
    <path d="m306.07,154.06c-.7-3.93.14-11.79-5.82-10.24-22.37,2.34-57.35,9.63-79.93,8.01-48.08,1.89-75.05-44.01-89.09-83.83C107.55.81,75.26,0,43.24.58,22.76.95.14,9.64.5,14.27c.27,3.47,13.39,3.96,29.76,7.82,24.82,5.84,27.19,14.55,37.97,25.33,18.78,18.79,23.39,51.8,32.65,76.16,14.51,38.87,48.01,71.94,88.63,82.23,33.18,4.88,76.14,7.61,109.72,7.91,2.53-.31,8.13.47,8.94-3.19-7.04-7.96-3.6-28.3-5.07-38.47,1.05-3.16-2.73-17.87,2.28-17.24.42.05.77-.35.69-.76Z"/>
    <path d="m495.96,154.06c.7-3.93-.14-11.79,5.82-10.24,22.37,2.34,57.35,9.63,79.93,8.01,48.08,1.89,75.05-44.01,89.09-83.83C694.48.81,726.78,0,758.79.58c20.49.37,43.1,9.06,42.74,13.69-.27,3.47-13.39,3.96-29.76,7.82-24.82,5.84-27.19,14.55-37.97,25.33-18.78,18.79-23.39,51.8-32.65,76.16-14.51,38.87-48.01,71.94-88.63,82.23-33.18,4.88-76.14,7.61-109.72,7.91-2.53-.31-8.13.47-8.94-3.19,7.04-7.96,3.6-28.3,5.07-38.47-1.05-3.16,2.73-17.87-2.28-17.24-.42.05-.77-.35-.69-.76Z"/>
    <path d="m294.83,228.47c5.8,4.76,17.05,13,20.98,19.57-.68,1.5-3.3,3.47-4.68,4.29,0,0-.41,1.16-.41,1.16.68,1.01,2.1,3.02,2.83,4-.74.99-3.66,1.08-4.75,1.16.34,5.35,1.64,12.41,6.5,15.56,2.53,1.04,4.08,2.33,5.37,4.79.28,2.34-.55,4.43-1.82,6.34-4.21,2.48-3.88,3.99-4.98,8.35-6.81,2.02-9.37-3.09-12.99-7.54-3.16-8.36-3.18-20.81-3.58-29.59-.16-2.43-2.81-7.58-3.97-9.7-1.29-3.21,1.07-15.02,1.49-18.39Z"/>
    <path d="m498.41,218.01c.12,6.33-4.81,9.26-8.53,13.52-3.35.96-9.6,3.68-12.09,6.17-1.68,2.28-4.16,5.32-3.48,8.45,2.03,1.49,6.4,1.59,7.46,4.11-.45,3.54-3.47,3.12.48,5.54-2.04,6.14-5.08,14.98-11.85,17.26,2.71,2.69,8.07,2.88,11.22,4.84,0,0,4.03,3.46,4.03,3.46,2.28-.05,9.16.71,10.95-1.17,6.48-13.08,9.27-25.25,8.07-39.89-.13-6.76-1.64-16.95-6.25-22.28Z"/>
    <path d="m380.84,446.61c-9.76,11.28-12.34,28.63-11.32,43.11,1.12,1.66,5.94,8.31,9.03,7.49,3.62-4.05,4.47-6.58,6.21-12.02.2-.63.71-2.47.71-2.53,1.43-9.93,4.62-21.24,1.98-30.89-.59-2.16-4.86-5.69-6.61-5.17Z"/>
    <path d="m416.47,443.96c-5.3,4.37-4.7,10.91-5.37,16.94-.62,4.57-.92,13.83.03,18.34.74,6.56.4,18.07,7.65,21.09,6.84.73,5.8-.49,8.57-5.94,2.55-5.68,4.12-17.29,3.58-23.47-.26-4.58-4.37-13.56-6.54-17.55-2.14-2.64-4.04-8.98-7.91-9.4Z"/>
    <path d="m357.24,535.68c-.22-1.41-.26-4.42.03-6.14.06-.35.39-.59.75-.55,2.32.31,3.64,2.66,4.93,4.32,6.31,3.06,15.56,7.51,15.74,15.5-3.23,1.23-12.48-4.58-15.15-5.95-1.03-.71-4.4-2.36-4.55-3.94-.01-.12.03-.24.09-.35.38-.68,1.38-2.26.78-2.63-.18-.11-.28-.29-.74-.38-.5-.1-1.42.09-1.83.15-.02,0-.04-.01-.05-.04Z"/>
    <path d="m413.99,548.3c.36-7.58,11.95-11.97,18.24-7.78,4.13-.16,12.14-5.89,11.37-4.31-3.51,7.12-15.18,14.28-23.33,15.34-1.73.23-2.98-.16-3.64-1.52-.35-.72-1.09-1.34-2.63-1.73Z"/>
    <path d="m399.73,490.4c-5.37,3.67-2.09,14.55-4.89,19.32.88,7.78-4.94,15.43-2.19,23.1,1-2.69,3.32-5.81,3.47-8.77-1.05-4.31,2.51-12.81,5.56-5.01.23-9.18.66-19.86-1.95-28.65Z"/>
    <path d="m369.53,489.8c-4.4-32.21-8.09-76.77-8.73-109.32,1.6-8.25,7.07-46.84,10.61-17.09,2.49,9.82,2.99,21.68,3.53,31.67,2.91,4.87,15.71,8.68,15.86.57.6-9.23.1-20.09-2.81-28.93,3.66,2.29,4.98,8.8,5.6,12.59,2.98,1.08,6.78.22,7.22-3.37,1.67,2.37,3.59,4.4,6.33,2.21.97-1.48,3.33-4.13,4.72-5.24.28,2.13.2,5.75-2.02,6.85.78,1.98,2.62,5.99,3.49,7.87-.25,2.45-.16,7.36,1.11,9.51,16.29-4.2,10.61-31.67,15.58-44.69,5.68,41.23,7.22,88.2.69,129.54.38-5.64.21-16.76-2.69-21.77-14.57-32.46-15.62-9.7-18.09,10.44-2.8-3.44-9.74-5.58-10.21.58.54-4.73-4.2-5.73-7.97-4.97-.17,4.13-1.3,12.98-2.8,16.85-1.09,2.97-4.08,8.88-7.35,10.13,2.62-3.53,5.01-15.71,5.86-20.04.73-8.32,4.89-24.74-6.88-26.79-9.46,11.48-11.97,28.84-11.04,43.39Z"/>
    <path d="m334.54,401.03c4.59,5,10.92,13.75,14.99,19.11.38,2.54-.11,6.41-1.43,8.55-.88,2.33-5.65-1.33-8.2-4.06-1.98-2.13-2.51-8.4-2.64-11.15-.32-2.97-1.86-9.63-2.73-12.45Z"/>
    <path d="m462.71,394.97c-1.53,2.49-4.75,8.18-5.17,11.23-.05.34-.49.88-.59,1.02-.62.93-3.77,4.9-3.77,4.9-7.39,10.7-6.26,4.38-5.06,17.89.01.14.06.27.15.37.26.31.82.99.82.99,2.45-1.99,10.36-7.97,10.16-10.72-.13-1.74-.4-3.19,1.3-4.27,2.58-1.01,1.96-5.17,1.83-7.29-.26-4.55.07-10.7.89-15.12l-.56,1Z"/>
    <path d="m399.69,136.77c-2.93.84-3.24,5.92-3.94,8.38,0,0,1.8,4.46,1.8,4.46.95,4.07.74,9.72,2.07,13.7-.98,2.56-4,6.31-2.79,9.11-.98,2.49-1.59,3.37,1.15,4.64.08,3.07.27,10.38-1.5,12.97,1.19,10.08.91,22.29-.15,32.38,0,0-11.12,10.66-11.12,10.66.36,3.25-7.29,7.71-9.29,9.35-7.11,9.52-15.89,22.96-17.06,35.03-8.56,8.35-14.75,3.7-21.51-3.81-3.41-3.37-11-12.13-13.66-16.13-1.37-3.44-3.1-10.94-8.06-9.98,3.96,4.85,4.51,12.85,8.36,17.85,2.78,1.9,5.67,4.58,7,7.75,5.63,4.42,11.34,10.16,16.61,15.09,9.71,5.34,10.91-5.7,12.42,8.85.32,1.36,1.34,4.41,2.32,5.42-.05,2.2-.12,6.64-.17,8.84,1.29,2.64,2.84,8.61,3.41,11.51,0,0-3.64-.07-3.64-.07l-2.85-4.74c-4.68.82-7.31-.32-8.57-5.02-3.17,3.35-9.37.53-13.36.43-1.7-.63-5.14-1.13-6.92-.66-.85.93-3.85,2.98-2.86,4.62,3.52-2.68,4.55-2.72,8.33-.53,0,0,6.4.82,6.4.82,1.98,1.03,5.65,1.74,7.79.85,6.56,4.32,6.18-.76,12.01,6.31,3.71,8.67,5.32,21.15,8.07,30.33-.54-6.74-1.75-22.11-1.86-28.65.64-4.73-.19-13.26-2.52-17.48,0,0,2.32-5.29,2.32-5.29-1.18-3.02-4.31-10.37-6.25-12.87-.36-2.31-.11-6.17,1.72-7.9-.33-7.59-.58-12.09,4.52-18.38-.12-10.64,21.66-31.01,29.38-39.08-.51,3.74-3.13,10.15-1.77,13.75-1.1,1.72-2.78,4.74-2.41,6.84,0,0-2.19,5.42-2.19,5.42,6.56,2.91,4.41,16.7,5.29,22.08-.57,3.85-4.25,7.1,1.06,8.99-.58,8.52-1.22,26.56-.69,34.97.9,7.25,1.82,16.22-.14,23.41-.15,5.55,1.91,11.39,1.35,17.06,1.17,2.76,1.05,7.51.9,10.29.97,2.46.15,8.36-.21,10.89,3.08-.95.71-5.62,4.38-1.18.61-5.8-.87-14.33-1.42-20.18,1.1-15.14-1.42-32.38-.75-47.61,1.29-7.88-3.16-25.37,2.03-30.52,1.06-1.91.5-5.02-.65-6.77,0,0-1.74-10.57-1.74-10.57.49-10.76.1-24.32-.48-34.99l5.2,6.47c-.08,3.82,2.76,7.54,5.53,9.86,3.46,3.05,11.08,11.29,14.27,14.77,1.02,3.32,4.72,9.5,6.78,12.31,3.75,3.42,2.47,12.64.97,16.92,2.37,12.73-1.17,29.71-.58,42.64-1.44,5.75-2.93,16.11-2.39,22.06,7.19-25.93,11.78-28,27.74-48.09,2.5,1.88,3.8,7.44,4.09,10.35,4,1.42,4.18.99,6.92-2.03l-3.78,1.18c-3.42-4.6-4.06-12.76-3.93-18.28l-7.56,7.39c.06,3.05-2.15,6.76-4.46,8.62-2.43-2.07-3.29,1.77-4.48,3.16-4.6,2.71-6.72,9.63-8.73,14.26-.68-14.68,3.21-32.01,1.44-46.66,1.33-6.3,3.41-4.13,5.85.12,2.03.68,2.91,1.75,2.63-1.25-1.71-10.21,9.15-13.28,13.29-21.06-2.87-9.57,11.26-10.41,17.03-12.93-3.05-3.67-11.26.86-15.11,1.46-3.42.09-4.33,1.32-5.55,4.25,1.81,6.65-2.92,9.63-7.92,12.46-6.1,7.9-6.9,9.5-14.2,1.54-2.47-5.84-5.34-12.76-10.86-16.47-.93-2.6-3.18-3.96-5.76-4.41-1.26-2.41-4.47-7.47-6.85-8.85.14-3.03-6.28-9.63-8.09-11.73.68-6.22-1.19-25.87,2.31-31.3-.26-6.33-.67-14.28-2.98-20.22,1.8-2.97,4.53-5.01,3.95-8.9-.23-2.22-.97-17.86-2.74-19.43.07-1.29,1.07-5.22,2.33-6.07-.8-.45-3.24-3.28-4.5-2.82Z"/>
    <path d="m345.27,350.78c-2.2,5.48-2.4,13.64,2.25,17.99.97-5.55-2.52-12.48-2.25-17.99Z"/>
    <path d="m452.22,347.96c-1.32,2.8-3.22,9.36-3.97,12.41,1.71,3.26.43,5.56,4.96,3.22-2.61-5.94-2.38-9.49-.99-15.62Z"/>
    <path d="m308.75,293.62c5.77,1.78,5.48-1.71,6.56-6.02,1.71-.99,4.43-3.49,5.18-5.36,14.92,13.92,7.28,11.82,14.81,25.55,1.21,9.85-2.19.82-7.76,7.65-5.19-19.1-3.87-12.15-19.37-21.81l.59-.02Z"/>
    <path d="m470.09,272.88c-4.63,6.42-8.61,14.71-9.42,22.66.46,4.24-1.55,8.47,3.78,18.26.3.55,4.38-.76,4.51-1.37,2.6-11.55,2.79-21.35,15.5-26.46,1.17-.47,16.45-6.44,8.31-4.8-7.24,1.46-8.71-1.45-12.92-4.46-2.07-1.48-7.7-2.36-9.76-3.83Z"/>
  </g>
  <g>
    <path class="cls-8" d="m287.73,156.27c16.31-2.32,44.07-1.89,61.15-4.97,14.53-2.28,21.9-3.23,26.72-6.17-1.58.97,17.42-10.16,25.98-7.94,22.67,13.9,46.25,17.37,59.93,17.01.3,1.11,40.22-1.8,43.29,2.81-.55,6.7-2.92,35.76-1,41.9,0,0,.97,4.8-.47,10.39-.48,1.85-1,2.91-1.98,3.52-2.43,1.5-5.88-.89-6.41-.04-.44.7,1.81,2.42,4.38,6.37,2.07,3.16,5.09,10.61,4.7,14.36,1.62,14.74.81,39.35-10.23,48.54-22.18,8.53-20.53,10.5-25.48,34.63-3.84,24.49,5.93,37.02.93,58.54-5.3,11.13-7.62,23.94-6.79,34.2,1.59,8.93-4.39,5.51-3.21,10.99.06,4.25-10.48,9.94-10.5,11.5-.84,1.66-.47,2.57-.52,6.49-.03,2.3-.17,2.69-1.13,11.03-2.7,23.42-1.78,21.57-3.01,27.12,0,0-.94,4.28-4.66,25.4-.27.36.09,2.91.46,3.26,1.34,2.9,5.06,8.03,5.64,10.91.83,5.99.87,12.55-.05,15.47-2.92,13.22-25.08,23.29-28.59,18.94-1.17-2.61-4.88-2.43-7.25-1.83-17.33-.66-2.2-30.65-10.79-32.98-4.2,2.1-1.96,7.8-3.21,11.25-.77,2.18-1.58,1.98-2.29,4.25-1.46,5.68,2.29,12.29-2.82,17.63-1.41,1.13-3.29,1.1-7.04,1.03-7-.66-9.51-.88-19.76-6.89-.72-.39-5.11-2.76-4.73-4.12.07-.24.3-.49.68-1.42.4-.96.34-1.18.29-1.29-.83-1.12-2.12-.26-2.85-.32-.74-.13-1.12-1.2-1.27-1.59-.96-2.54-1.71-2.22-2.89-5.26-1.71-4.41-1.49-8.6-1.36-10.04,4.1-20.82,12.56-14.57,2.16-37.15-2.59-11.34-2.49-20.44-2.9-37.25-.59-4.12-.06-8.21-.8-12.24-.82-1.72-2.44-2.13-4.87-3.61-10.63-5.34-5.55-13.2-10.76-27.78-4.13-9.48-10.98-20.36-11.28-28.05-1.65-34.53,11.1-36.89.59-69.43-.91-2.23-2.42-2.92-3.58-3.32-9.48-3.88-20.14-9.67-21.3-21.1-2.61-11.68.67-23.29-3.98-29.08-1.33-1.99-2.83-6.88-1.89-9.79,1.91-13,1.52-16.32,4.18-20.85,1.48-1.31,5.43-3.22,4.85-6.32-.38-1.19-1.8-1.91-2.28-2.11-4.23-1.82-5.72-13.79-6.42-30.39-.74-17.36-4.69-12.1-4.66-13.26.78-7.38,4.24-8.12-.91-10.91Z"/>
    <path class="cls-1" d="m302.25,213.37c17.47-9.05,48-41.19,54.64-53.65,2.26-4.24,6.31-10.7-.23-9.65-44.37,7.14-66.41,1.7-67.88,9.3-1.24,6.39,2.76,50.96,13.48,53.99Z"/>
    <path class="cls-1" d="m496.66,212.83c-8.87-5.4-24.56-18.27-30.42-26.87-1.38-2.78-9.84-31.75-13.6-32.02,13.61.97,40.21-1.33,53.2,2.11-2.49,7.13,5.43,61.2-9.18,56.78Z"/>
    <path class="cls-3" d="m306.07,154.06c-.7-3.93.14-11.79-5.82-10.24-22.37,2.34-57.35,9.63-79.93,8.01-48.08,1.89-75.05-44.01-89.09-83.83C107.55.81,75.26,0,43.24.58,22.76.95.14,9.64.5,14.27c.27,3.47,13.39,3.96,29.76,7.82,24.82,5.84,27.19,14.55,37.97,25.33,18.78,18.79,23.39,51.8,32.65,76.16,14.51,38.87,48.01,71.94,88.63,82.23,33.18,4.88,76.14,7.61,109.72,7.91,2.53-.31,8.13.47,8.94-3.19-7.04-7.96-3.6-28.3-5.07-38.47,1.05-3.16-2.73-17.87,2.28-17.24.42.05.77-.35.69-.76Z"/>
    <path class="cls-3" d="m495.96,154.06c.7-3.93-.14-11.79,5.82-10.24,22.37,2.34,57.35,9.63,79.93,8.01,48.08,1.89,75.05-44.01,89.09-83.83C694.48.81,726.78,0,758.79.58c20.49.37,43.1,9.06,42.74,13.69-.27,3.47-13.39,3.96-29.76,7.82-24.82,5.84-27.19,14.55-37.97,25.33-18.78,18.79-23.39,51.8-32.65,76.16-14.51,38.87-48.01,71.94-88.63,82.23-33.18,4.88-76.14,7.61-109.72,7.91-2.53-.31-8.13.47-8.94-3.19,7.04-7.96,3.6-28.3,5.07-38.47-1.05-3.16,2.73-17.87-2.28-17.24-.42.05-.77-.35-.69-.76Z"/>
    <path class="cls-3" d="m294.83,228.47c5.8,4.76,17.05,13,20.98,19.57-.68,1.5-3.3,3.47-4.68,4.29,0,0-.41,1.16-.41,1.16.68,1.01,2.1,3.02,2.83,4-.74.99-3.66,1.08-4.75,1.16.34,5.35,1.64,12.41,6.5,15.56,2.53,1.04,4.08,2.33,5.37,4.79.28,2.34-.55,4.43-1.82,6.34-4.21,2.48-3.88,3.99-4.98,8.35-6.81,2.02-9.37-3.09-12.99-7.54-3.16-8.36-3.18-20.81-3.58-29.59-.16-2.43-2.81-7.58-3.97-9.7-1.29-3.21,1.07-15.02,1.49-18.39Z"/>
    <path class="cls-3" d="m498.41,218.01c.12,6.33-4.81,9.26-8.53,13.52-3.35.96-9.6,3.68-12.09,6.17-1.68,2.28-4.16,5.32-3.48,8.45,2.03,1.49,6.4,1.59,7.46,4.11-.45,3.54-3.47,3.12.48,5.54-2.04,6.14-5.08,14.98-11.85,17.26,2.71,2.69,8.07,2.88,11.22,4.84,0,0,4.03,3.46,4.03,3.46,2.28-.05,9.16.71,10.95-1.17,6.48-13.08,9.27-25.25,8.07-39.89-.13-6.76-1.64-16.95-6.25-22.28Z"/>
    <path class="cls-3" d="m380.84,446.61c-9.76,11.28-12.34,28.63-11.32,43.11,1.12,1.66,5.94,8.31,9.03,7.49,3.62-4.05,4.47-6.58,6.21-12.02.2-.63.71-2.47.71-2.53,1.43-9.93,4.62-21.24,1.98-30.89-.59-2.16-4.86-5.69-6.61-5.17Z"/>
    <path class="cls-3" d="m416.47,443.96c-5.3,4.37-4.7,10.91-5.37,16.94-.62,4.57-.92,13.83.03,18.34.74,6.56.4,18.07,7.65,21.09,6.84.73,5.8-.49,8.57-5.94,2.55-5.68,4.12-17.29,3.58-23.47-.26-4.58-4.37-13.56-6.54-17.55-2.14-2.64-4.04-8.98-7.91-9.4Z"/>
    <path class="cls-6" d="m357.24,535.68c-.22-1.41-.26-4.42.03-6.14.06-.35.39-.59.75-.55,2.32.31,3.64,2.66,4.93,4.32,6.31,3.06,15.56,7.51,15.74,15.5-3.23,1.23-12.48-4.58-15.15-5.95-1.03-.71-4.4-2.36-4.55-3.94-.01-.12.03-.24.09-.35.38-.68,1.38-2.26.78-2.63-.18-.11-.28-.29-.74-.38-.5-.1-1.42.09-1.83.15-.02,0-.04-.01-.05-.04Z"/>
    <path class="cls-6" d="m413.99,548.3c.36-7.58,11.95-11.97,18.24-7.78,4.13-.16,12.14-5.89,11.37-4.31-3.51,7.12-15.18,14.28-23.33,15.34-1.73.23-2.98-.16-3.64-1.52-.35-.72-1.09-1.34-2.63-1.73Z"/>
    <path class="cls-3" d="m399.73,490.4c-5.37,3.67-2.09,14.55-4.89,19.32.88,7.78-4.94,15.43-2.19,23.1,1-2.69,3.32-5.81,3.47-8.77-1.05-4.31,2.51-12.81,5.56-5.01.23-9.18.66-19.86-1.95-28.65Z"/>
    <path class="cls-9" d="m369.53,489.8c-4.4-32.21-8.09-76.77-8.73-109.32,1.6-8.25,7.07-46.84,10.61-17.09,2.49,9.82,2.99,21.68,3.53,31.67,2.91,4.87,15.71,8.68,15.86.57.6-9.23.1-20.09-2.81-28.93,3.66,2.29,4.98,8.8,5.6,12.59,2.98,1.08,6.78.22,7.22-3.37,1.67,2.37,3.59,4.4,6.33,2.21.97-1.48,3.33-4.13,4.72-5.24.28,2.13.2,5.75-2.02,6.85.78,1.98,2.62,5.99,3.49,7.87-.25,2.45-.16,7.36,1.11,9.51,16.29-4.2,10.61-31.67,15.58-44.69,5.68,41.23,7.22,88.2.69,129.54.38-5.64.21-16.76-2.69-21.77-14.57-32.46-15.62-9.7-18.09,10.44-2.8-3.44-9.74-5.58-10.21.58.54-4.73-4.2-5.73-7.97-4.97-.17,4.13-1.3,12.98-2.8,16.85-1.09,2.97-4.08,8.88-7.35,10.13,2.62-3.53,5.01-15.71,5.86-20.04.73-8.32,4.89-24.74-6.88-26.79-9.46,11.48-11.97,28.84-11.04,43.39Z"/>
    <path class="cls-4" d="m334.54,401.03c4.59,5,10.92,13.75,14.99,19.11.38,2.54-.11,6.41-1.43,8.55-.88,2.33-5.65-1.33-8.2-4.06-1.98-2.13-2.51-8.4-2.64-11.15-.32-2.97-1.86-9.63-2.73-12.45Z"/>
    <path class="cls-4" d="m462.71,394.97c-1.53,2.49-4.75,8.18-5.17,11.23-.05.34-.49.88-.59,1.02-.62.93-3.77,4.9-3.77,4.9-7.39,10.7-6.26,4.38-5.06,17.89.01.14.06.27.15.37.26.31.82.99.82.99,2.45-1.99,10.36-7.97,10.16-10.72-.13-1.74-.4-3.19,1.3-4.27,2.58-1.01,1.96-5.17,1.83-7.29-.26-4.55.07-10.7.89-15.12l-.56,1Z"/>
    <path class="cls-5" d="m399.69,136.77c-2.93.84-3.24,5.92-3.94,8.38,0,0,1.8,4.46,1.8,4.46.95,4.07.74,9.72,2.07,13.7-.98,2.56-4,6.31-2.79,9.11-.98,2.49-1.59,3.37,1.15,4.64.08,3.07.27,10.38-1.5,12.97,1.19,10.08.91,22.29-.15,32.38,0,0-11.12,10.66-11.12,10.66.36,3.25-7.29,7.71-9.29,9.35-7.11,9.52-15.89,22.96-17.06,35.03-8.56,8.35-14.75,3.7-21.51-3.81-3.41-3.37-11-12.13-13.66-16.13-1.37-3.44-3.1-10.94-8.06-9.98,3.96,4.85,4.51,12.85,8.36,17.85,2.78,1.9,5.67,4.58,7,7.75,5.63,4.42,11.34,10.16,16.61,15.09,9.71,5.34,10.91-5.7,12.42,8.85.32,1.36,1.34,4.41,2.32,5.42-.05,2.2-.12,6.64-.17,8.84,1.29,2.64,2.84,8.61,3.41,11.51,0,0-3.64-.07-3.64-.07l-2.85-4.74c-4.68.82-7.31-.32-8.57-5.02-3.17,3.35-9.37.53-13.36.43-1.7-.63-5.14-1.13-6.92-.66-.85.93-3.85,2.98-2.86,4.62,3.52-2.68,4.55-2.72,8.33-.53,0,0,6.4.82,6.4.82,1.98,1.03,5.65,1.74,7.79.85,6.56,4.32,6.18-.76,12.01,6.31,3.71,8.67,5.32,21.15,8.07,30.33-.54-6.74-1.75-22.11-1.86-28.65.64-4.73-.19-13.26-2.52-17.48,0,0,2.32-5.29,2.32-5.29-1.18-3.02-4.31-10.37-6.25-12.87-.36-2.31-.11-6.17,1.72-7.9-.33-7.59-.58-12.09,4.52-18.38-.12-10.64,21.66-31.01,29.38-39.08-.51,3.74-3.13,10.15-1.77,13.75-1.1,1.72-2.78,4.74-2.41,6.84,0,0-2.19,5.42-2.19,5.42,6.56,2.91,4.41,16.7,5.29,22.08-.57,3.85-4.25,7.1,1.06,8.99-.58,8.52-1.22,26.56-.69,34.97.9,7.25,1.82,16.22-.14,23.41-.15,5.55,1.91,11.39,1.35,17.06,1.17,2.76,1.05,7.51.9,10.29.97,2.46.15,8.36-.21,10.89,3.08-.95.71-5.62,4.38-1.18.61-5.8-.87-14.33-1.42-20.18,1.1-15.14-1.42-32.38-.75-47.61,1.29-7.88-3.16-25.37,2.03-30.52,1.06-1.91.5-5.02-.65-6.77,0,0-1.74-10.57-1.74-10.57.49-10.76.1-24.32-.48-34.99l5.2,6.47c-.08,3.82,2.76,7.54,5.53,9.86,3.46,3.05,11.08,11.29,14.27,14.77,1.02,3.32,4.72,9.5,6.78,12.31,3.75,3.42,2.47,12.64.97,16.92,2.37,12.73-1.17,29.71-.58,42.64-1.44,5.75-2.93,16.11-2.39,22.06,7.19-25.93,11.78-28,27.74-48.09,2.5,1.88,3.8,7.44,4.09,10.35,4,1.42,4.18.99,6.92-2.03l-3.78,1.18c-3.42-4.6-4.06-12.76-3.93-18.28l-7.56,7.39c.06,3.05-2.15,6.76-4.46,8.62-2.43-2.07-3.29,1.77-4.48,3.16-4.6,2.71-6.72,9.63-8.73,14.26-.68-14.68,3.21-32.01,1.44-46.66,1.33-6.3,3.41-4.13,5.85.12,2.03.68,2.91,1.75,2.63-1.25-1.71-10.21,9.15-13.28,13.29-21.06-2.87-9.57,11.26-10.41,17.03-12.93-3.05-3.67-11.26.86-15.11,1.46-3.42.09-4.33,1.32-5.55,4.25,1.81,6.65-2.92,9.63-7.92,12.46-6.1,7.9-6.9,9.5-14.2,1.54-2.47-5.84-5.34-12.76-10.86-16.47-.93-2.6-3.18-3.96-5.76-4.41-1.26-2.41-4.47-7.47-6.85-8.85.14-3.03-6.28-9.63-8.09-11.73.68-6.22-1.19-25.87,2.31-31.3-.26-6.33-.67-14.28-2.98-20.22,1.8-2.97,4.53-5.01,3.95-8.9-.23-2.22-.97-17.86-2.74-19.43.07-1.29,1.07-5.22,2.33-6.07-.8-.45-3.24-3.28-4.5-2.82Z"/>
    <path class="cls-7" d="m345.27,350.78c-2.2,5.48-2.4,13.64,2.25,17.99.97-5.55-2.52-12.48-2.25-17.99Z"/>
    <path class="cls-7" d="m452.22,347.96c-1.32,2.8-3.22,9.36-3.97,12.41,1.71,3.26.43,5.56,4.96,3.22-2.61-5.94-2.38-9.49-.99-15.62Z"/>
    <path class="cls-1" d="m308.75,293.62c5.77,1.78,5.48-1.71,6.56-6.02,1.71-.99,4.43-3.49,5.18-5.36,14.92,13.92,7.28,11.82,14.81,25.55,1.21,9.85-2.19.82-7.76,7.65-5.19-19.1-3.87-12.15-19.37-21.81l.59-.02Z"/>
    <path class="cls-1" d="m470.09,272.88c-4.63,6.42-8.61,14.71-9.42,22.66.46,4.24-1.55,8.47,3.78,18.26.3.55,4.38-.76,4.51-1.37,2.6-11.55,2.79-21.35,15.5-26.46,1.17-.47,16.45-6.44,8.31-4.8-7.24,1.46-8.71-1.45-12.92-4.46-2.07-1.48-7.7-2.36-9.76-3.83Z"/>
  </g>
  <g>
    <path class="cls-2" d="m287.73,156.27c16.31-2.32,44.07-1.89,61.15-4.97,14.53-2.28,21.9-3.23,26.72-6.17-1.58.97,17.42-10.16,25.98-7.94,22.67,13.9,46.25,17.37,59.93,17.01.3,1.11,40.22-1.8,43.29,2.81-.55,6.7-2.92,35.76-1,41.9,0,0,.97,4.8-.47,10.39-.48,1.85-1,2.91-1.98,3.52-2.43,1.5-5.88-.89-6.41-.04-.44.7,1.81,2.42,4.38,6.37,2.07,3.16,5.09,10.61,4.7,14.36,1.62,14.74.81,39.35-10.23,48.54-22.18,8.53-20.53,10.5-25.48,34.63-3.84,24.49,5.93,37.02.93,58.54-5.3,11.13-7.62,23.94-6.79,34.2,1.59,8.93-4.39,5.51-3.21,10.99.06,4.25-10.48,9.94-10.5,11.5-.84,1.66-.47,2.57-.52,6.49-.03,2.3-.17,2.69-1.13,11.03-2.7,23.42-1.78,21.57-3.01,27.12,0,0-.94,4.28-4.66,25.4-.27.36.09,2.91.46,3.26,1.34,2.9,5.06,8.03,5.64,10.91.83,5.99.87,12.55-.05,15.47-2.92,13.22-25.08,23.29-28.59,18.94-1.17-2.61-4.88-2.43-7.25-1.83-17.33-.66-2.2-30.65-10.79-32.98-4.2,2.1-1.96,7.8-3.21,11.25-.77,2.18-1.58,1.98-2.29,4.25-1.46,5.68,2.29,12.29-2.82,17.63-1.41,1.13-3.29,1.1-7.04,1.03-7-.66-9.51-.88-19.76-6.89-.72-.39-5.11-2.76-4.73-4.12.07-.24.3-.49.68-1.42.4-.96.34-1.18.29-1.29-.83-1.12-2.12-.26-2.85-.32-.74-.13-1.12-1.2-1.27-1.59-.96-2.54-1.71-2.22-2.89-5.26-1.71-4.41-1.49-8.6-1.36-10.04,4.1-20.82,12.56-14.57,2.16-37.15-2.59-11.34-2.49-20.44-2.9-37.25-.59-4.12-.06-8.21-.8-12.24-.82-1.72-2.44-2.13-4.87-3.61-10.63-5.34-5.55-13.2-10.76-27.78-4.13-9.48-10.98-20.36-11.28-28.05-1.65-34.53,11.1-36.89.59-69.43-.91-2.23-2.42-2.92-3.58-3.32-9.48-3.88-20.14-9.67-21.3-21.1-2.61-11.68.67-23.29-3.98-29.08-1.33-1.99-2.83-6.88-1.89-9.79,1.91-13,1.52-16.32,4.18-20.85,1.48-1.31,5.43-3.22,4.85-6.32-.38-1.19-1.8-1.91-2.28-2.11-4.23-1.82-5.72-13.79-6.42-30.39-.74-17.36-4.69-12.1-4.66-13.26.78-7.38,4.24-8.12-.91-10.91Z"/>
    <path class="cls-2" d="m302.25,213.37c17.47-9.05,48-41.19,54.64-53.65,2.26-4.24,6.31-10.7-.23-9.65-44.37,7.14-66.41,1.7-67.88,9.3-1.24,6.39,2.76,50.96,13.48,53.99Z"/>
    <path class="cls-2" d="m496.66,212.83c-8.87-5.4-24.56-18.27-30.42-26.87-1.38-2.78-9.84-31.75-13.6-32.02,13.61.97,40.21-1.33,53.2,2.11-2.49,7.13,5.43,61.2-9.18,56.78Z"/>
    <path class="cls-2" d="m306.07,154.06c-.7-3.93.14-11.79-5.82-10.24-22.37,2.34-57.35,9.63-79.93,8.01-48.08,1.89-75.05-44.01-89.09-83.83C107.55.81,75.26,0,43.24.58,22.76.95.14,9.64.5,14.27c.27,3.47,13.39,3.96,29.76,7.82,24.82,5.84,27.19,14.55,37.97,25.33,18.78,18.79,23.39,51.8,32.65,76.16,14.51,38.87,48.01,71.94,88.63,82.23,33.18,4.88,76.14,7.61,109.72,7.91,2.53-.31,8.13.47,8.94-3.19-7.04-7.96-3.6-28.3-5.07-38.47,1.05-3.16-2.73-17.87,2.28-17.24.42.05.77-.35.69-.76Z"/>
    <path class="cls-2" d="m495.96,154.06c.7-3.93-.14-11.79,5.82-10.24,22.37,2.34,57.35,9.63,79.93,8.01,48.08,1.89,75.05-44.01,89.09-83.83C694.48.81,726.78,0,758.79.58c20.49.37,43.1,9.06,42.74,13.69-.27,3.47-13.39,3.96-29.76,7.82-24.82,5.84-27.19,14.55-37.97,25.33-18.78,18.79-23.39,51.8-32.65,76.16-14.51,38.87-48.01,71.94-88.63,82.23-33.18,4.88-76.14,7.61-109.72,7.91-2.53-.31-8.13.47-8.94-3.19,7.04-7.96,3.6-28.3,5.07-38.47-1.05-3.16,2.73-17.87-2.28-17.24-.42.05-.77-.35-.69-.76Z"/>
    <path class="cls-2" d="m294.83,228.47c5.8,4.76,17.05,13,20.98,19.57-.68,1.5-3.3,3.47-4.68,4.29,0,0-.41,1.16-.41,1.16.68,1.01,2.1,3.02,2.83,4-.74.99-3.66,1.08-4.75,1.16.34,5.35,1.64,12.41,6.5,15.56,2.53,1.04,4.08,2.33,5.37,4.79.28,2.34-.55,4.43-1.82,6.34-4.21,2.48-3.88,3.99-4.98,8.35-6.81,2.02-9.37-3.09-12.99-7.54-3.16-8.36-3.18-20.81-3.58-29.59-.16-2.43-2.81-7.58-3.97-9.7-1.29-3.21,1.07-15.02,1.49-18.39Z"/>
    <path class="cls-2" d="m498.41,218.01c.12,6.33-4.81,9.26-8.53,13.52-3.35.96-9.6,3.68-12.09,6.17-1.68,2.28-4.16,5.32-3.48,8.45,2.03,1.49,6.4,1.59,7.46,4.11-.45,3.54-3.47,3.12.48,5.54-2.04,6.14-5.08,14.98-11.85,17.26,2.71,2.69,8.07,2.88,11.22,4.84,0,0,4.03,3.46,4.03,3.46,2.28-.05,9.16.71,10.95-1.17,6.48-13.08,9.27-25.25,8.07-39.89-.13-6.76-1.64-16.95-6.25-22.28Z"/>
    <path class="cls-2" d="m380.84,446.61c-9.76,11.28-12.34,28.63-11.32,43.11,1.12,1.66,5.94,8.31,9.03,7.49,3.62-4.05,4.47-6.58,6.21-12.02.2-.63.71-2.47.71-2.53,1.43-9.93,4.62-21.24,1.98-30.89-.59-2.16-4.86-5.69-6.61-5.17Z"/>
    <path class="cls-2" d="m416.47,443.96c-5.3,4.37-4.7,10.91-5.37,16.94-.62,4.57-.92,13.83.03,18.34.74,6.56.4,18.07,7.65,21.09,6.84.73,5.8-.49,8.57-5.94,2.55-5.68,4.12-17.29,3.58-23.47-.26-4.58-4.37-13.56-6.54-17.55-2.14-2.64-4.04-8.98-7.91-9.4Z"/>
    <path class="cls-2" d="m357.24,535.68c-.22-1.41-.26-4.42.03-6.14.06-.35.39-.59.75-.55,2.32.31,3.64,2.66,4.93,4.32,6.31,3.06,15.56,7.51,15.74,15.5-3.23,1.23-12.48-4.58-15.15-5.95-1.03-.71-4.4-2.36-4.55-3.94-.01-.12.03-.24.09-.35.38-.68,1.38-2.26.78-2.63-.18-.11-.28-.29-.74-.38-.5-.1-1.42.09-1.83.15-.02,0-.04-.01-.05-.04Z"/>
    <path class="cls-2" d="m413.99,548.3c.36-7.58,11.95-11.97,18.24-7.78,4.13-.16,12.14-5.89,11.37-4.31-3.51,7.12-15.18,14.28-23.33,15.34-1.73.23-2.98-.16-3.64-1.52-.35-.72-1.09-1.34-2.63-1.73Z"/>
    <path class="cls-2" d="m399.73,490.4c-5.37,3.67-2.09,14.55-4.89,19.32.88,7.78-4.94,15.43-2.19,23.1,1-2.69,3.32-5.81,3.47-8.77-1.05-4.31,2.51-12.81,5.56-5.01.23-9.18.66-19.86-1.95-28.65Z"/>
    <path class="cls-2" d="m369.53,489.8c-4.4-32.21-8.09-76.77-8.73-109.32,1.6-8.25,7.07-46.84,10.61-17.09,2.49,9.82,2.99,21.68,3.53,31.67,2.91,4.87,15.71,8.68,15.86.57.6-9.23.1-20.09-2.81-28.93,3.66,2.29,4.98,8.8,5.6,12.59,2.98,1.08,6.78.22,7.22-3.37,1.67,2.37,3.59,4.4,6.33,2.21.97-1.48,3.33-4.13,4.72-5.24.28,2.13.2,5.75-2.02,6.85.78,1.98,2.62,5.99,3.49,7.87-.25,2.45-.16,7.36,1.11,9.51,16.29-4.2,10.61-31.67,15.58-44.69,5.68,41.23,7.22,88.2.69,129.54.38-5.64.21-16.76-2.69-21.77-14.57-32.46-15.62-9.7-18.09,10.44-2.8-3.44-9.74-5.58-10.21.58.54-4.73-4.2-5.73-7.97-4.97-.17,4.13-1.3,12.98-2.8,16.85-1.09,2.97-4.08,8.88-7.35,10.13,2.62-3.53,5.01-15.71,5.86-20.04.73-8.32,4.89-24.74-6.88-26.79-9.46,11.48-11.97,28.84-11.04,43.39Z"/>
    <path class="cls-2" d="m334.54,401.03c4.59,5,10.92,13.75,14.99,19.11.38,2.54-.11,6.41-1.43,8.55-.88,2.33-5.65-1.33-8.2-4.06-1.98-2.13-2.51-8.4-2.64-11.15-.32-2.97-1.86-9.63-2.73-12.45Z"/>
    <path class="cls-2" d="m462.71,394.97c-1.53,2.49-4.75,8.18-5.17,11.23-.05.34-.49.88-.59,1.02-.62.93-3.77,4.9-3.77,4.9-7.39,10.7-6.26,4.38-5.06,17.89.01.14.06.27.15.37.26.31.82.99.82.99,2.45-1.99,10.36-7.97,10.16-10.72-.13-1.74-.4-3.19,1.3-4.27,2.58-1.01,1.96-5.17,1.83-7.29-.26-4.55.07-10.7.89-15.12l-.56,1Z"/>
    <path class="cls-2" d="m399.69,136.77c-2.93.84-3.24,5.92-3.94,8.38,0,0,1.8,4.46,1.8,4.46.95,4.07.74,9.72,2.07,13.7-.98,2.56-4,6.31-2.79,9.11-.98,2.49-1.59,3.37,1.15,4.64.08,3.07.27,10.38-1.5,12.97,1.19,10.08.91,22.29-.15,32.38,0,0-11.12,10.66-11.12,10.66.36,3.25-7.29,7.71-9.29,9.35-7.11,9.52-15.89,22.96-17.06,35.03-8.56,8.35-14.75,3.7-21.51-3.81-3.41-3.37-11-12.13-13.66-16.13-1.37-3.44-3.1-10.94-8.06-9.98,3.96,4.85,4.51,12.85,8.36,17.85,2.78,1.9,5.67,4.58,7,7.75,5.63,4.42,11.34,10.16,16.61,15.09,9.71,5.34,10.91-5.7,12.42,8.85.32,1.36,1.34,4.41,2.32,5.42-.05,2.2-.12,6.64-.17,8.84,1.29,2.64,2.84,8.61,3.41,11.51,0,0-3.64-.07-3.64-.07l-2.85-4.74c-4.68.82-7.31-.32-8.57-5.02-3.17,3.35-9.37.53-13.36.43-1.7-.63-5.14-1.13-6.92-.66-.85.93-3.85,2.98-2.86,4.62,3.52-2.68,4.55-2.72,8.33-.53,0,0,6.4.82,6.4.82,1.98,1.03,5.65,1.74,7.79.85,6.56,4.32,6.18-.76,12.01,6.31,3.71,8.67,5.32,21.15,8.07,30.33-.54-6.74-1.75-22.11-1.86-28.65.64-4.73-.19-13.26-2.52-17.48,0,0,2.32-5.29,2.32-5.29-1.18-3.02-4.31-10.37-6.25-12.87-.36-2.31-.11-6.17,1.72-7.9-.33-7.59-.58-12.09,4.52-18.38-.12-10.64,21.66-31.01,29.38-39.08-.51,3.74-3.13,10.15-1.77,13.75-1.1,1.72-2.78,4.74-2.41,6.84,0,0-2.19,5.42-2.19,5.42,6.56,2.91,4.41,16.7,5.29,22.08-.57,3.85-4.25,7.1,1.06,8.99-.58,8.52-1.22,26.56-.69,34.97.9,7.25,1.82,16.22-.14,23.41-.15,5.55,1.91,11.39,1.35,17.06,1.17,2.76,1.05,7.51.9,10.29.97,2.46.15,8.36-.21,10.89,3.08-.95.71-5.62,4.38-1.18.61-5.8-.87-14.33-1.42-20.18,1.1-15.14-1.42-32.38-.75-47.61,1.29-7.88-3.16-25.37,2.03-30.52,1.06-1.91.5-5.02-.65-6.77,0,0-1.74-10.57-1.74-10.57.49-10.76.1-24.32-.48-34.99l5.2,6.47c-.08,3.82,2.76,7.54,5.53,9.86,3.46,3.05,11.08,11.29,14.27,14.77,1.02,3.32,4.72,9.5,6.78,12.31,3.75,3.42,2.47,12.64.97,16.92,2.37,12.73-1.17,29.71-.58,42.64-1.44,5.75-2.93,16.11-2.39,22.06,7.19-25.93,11.78-28,27.74-48.09,2.5,1.88,3.8,7.44,4.09,10.35,4,1.42,4.18.99,6.92-2.03l-3.78,1.18c-3.42-4.6-4.06-12.76-3.93-18.28l-7.56,7.39c.06,3.05-2.15,6.76-4.46,8.62-2.43-2.07-3.29,1.77-4.48,3.16-4.6,2.71-6.72,9.63-8.73,14.26-.68-14.68,3.21-32.01,1.44-46.66,1.33-6.3,3.41-4.13,5.85.12,2.03.68,2.91,1.75,2.63-1.25-1.71-10.21,9.15-13.28,13.29-21.06-2.87-9.57,11.26-10.41,17.03-12.93-3.05-3.67-11.26.86-15.11,1.46-3.42.09-4.33,1.32-5.55,4.25,1.81,6.65-2.92,9.63-7.92,12.46-6.1,7.9-6.9,9.5-14.2,1.54-2.47-5.84-5.34-12.76-10.86-16.47-.93-2.6-3.18-3.96-5.76-4.41-1.26-2.41-4.47-7.47-6.85-8.85.14-3.03-6.28-9.63-8.09-11.73.68-6.22-1.19-25.87,2.31-31.3-.26-6.33-.67-14.28-2.98-20.22,1.8-2.97,4.53-5.01,3.95-8.9-.23-2.22-.97-17.86-2.74-19.43.07-1.29,1.07-5.22,2.33-6.07-.8-.45-3.24-3.28-4.5-2.82Z"/>
    <path class="cls-2" d="m345.27,350.78c-2.2,5.48-2.4,13.64,2.25,17.99.97-5.55-2.52-12.48-2.25-17.99Z"/>
    <path class="cls-2" d="m452.22,347.96c-1.32,2.8-3.22,9.36-3.97,12.41,1.71,3.26.43,5.56,4.96,3.22-2.61-5.94-2.38-9.49-.99-15.62Z"/>
    <path class="cls-2" d="m308.75,293.62c5.77,1.78,5.48-1.71,6.56-6.02,1.71-.99,4.43-3.49,5.18-5.36,14.92,13.92,7.28,11.82,14.81,25.55,1.21,9.85-2.19.82-7.76,7.65-5.19-19.1-3.87-12.15-19.37-21.81l.59-.02Z"/>
    <path class="cls-2" d="m470.09,272.88c-4.63,6.42-8.61,14.71-9.42,22.66.46,4.24-1.55,8.47,3.78,18.26.3.55,4.38-.76,4.51-1.37,2.6-11.55,2.79-21.35,15.5-26.46,1.17-.47,16.45-6.44,8.31-4.8-7.24,1.46-8.71-1.45-12.92-4.46-2.07-1.48-7.7-2.36-9.76-3.83Z"/>
  </g>
</svg>